<svg width="14" height="14" viewBox="0 0 14 14" fill="none" xmlns="http://www.w3.org/2000/svg">
<path fill-rule="evenodd" clip-rule="evenodd" d="M12.8085 10.3392C12.9298 10.7538 12.621 10.9114 12.3382 11.0561C12.2881 11.0812 12.2388 11.1062 12.1968 11.1297L7.55034 13.5034C7.36497 13.598 7.1556 13.6351 6.94902 13.61C6.73 13.5882 6.49561 13.513 6.24262 13.4209L4.09277 12.6353C4.05525 12.6213 4.01428 12.6193 3.97558 12.6297L3.44295 12.7687L2.56355 9.76137L4.08298 9.26997C4.30201 9.19888 4.5081 9.15275 4.71096 9.15034C4.92123 9.14712 5.12953 9.19132 5.32037 9.27965L7.75068 10.3652C7.87687 10.4256 7.9805 10.5247 8.04649 10.6481C8.12805 10.7927 8.1717 10.9556 8.17339 11.1217V11.1387C8.17272 11.1864 8.16815 11.2339 8.15972 11.2809C8.15137 11.3285 8.13865 11.3753 8.12174 11.4207C8.05546 11.5961 7.93826 11.71 7.79602 11.765C7.63518 11.8272 7.43798 11.8191 7.23996 11.7448L5.60332 11.1305C5.57879 11.1211 5.55263 11.1167 5.52636 11.1174C5.50009 11.1182 5.47423 11.1242 5.45028 11.135C5.42633 11.1458 5.40477 11.1613 5.38684 11.1805C5.36892 11.1997 5.35498 11.2223 5.34584 11.2469C5.3367 11.2716 5.33254 11.2978 5.3336 11.3241C5.33466 11.3503 5.34092 11.3761 5.35201 11.3999C5.36311 11.4238 5.37882 11.4451 5.39823 11.4629C5.41765 11.4806 5.44039 11.4942 5.46513 11.5031L7.10097 12.1174C7.3895 12.2257 7.68692 12.2337 7.93908 12.136C8.18477 12.0414 8.3844 11.8506 8.49433 11.5613C8.52064 11.4928 8.54013 11.4219 8.55251 11.3495C8.55735 11.3245 8.56072 11.2995 8.56383 11.2736L12.2711 9.96992C12.3234 9.95694 12.3778 9.95505 12.4308 9.96438C12.4839 9.97371 12.5344 9.99405 12.5791 10.0241C12.6909 10.0982 12.7723 10.2101 12.8085 10.3392ZM3.11726 13.071C3.11644 13.0678 3.11564 13.0653 3.11482 13.0621L2.12873 9.69336V9.69254C2.12791 9.6885 2.12629 9.68527 2.12547 9.68122L1.9986 9.24802C1.99672 9.24147 1.99353 9.23537 1.98922 9.2301C1.98492 9.22482 1.97959 9.22047 1.97355 9.21731C1.96123 9.21049 1.94672 9.20875 1.93314 9.21247L0.747484 9.55938C0.734396 9.56346 0.723386 9.57243 0.71675 9.58443C0.709878 9.59703 0.708143 9.6118 0.71191 9.62566L1.98082 13.9625C1.98269 13.969 1.98588 13.9751 1.99018 13.9804C1.99449 13.9857 1.99983 13.99 2.00587 13.9932C2.0182 14 2.0327 14.0017 2.04629 13.998L3.23194 13.6513C3.24502 13.6472 3.25602 13.6383 3.26265 13.6263C3.26953 13.6137 3.27127 13.5989 3.26748 13.585L3.11726 13.071ZM13.2466 5.27573L12.7471 5.40102L12.3373 5.50446C12.244 5.90462 12.086 6.28683 11.8694 6.63598L12.086 6.99886L12.3503 7.44098C12.0931 7.7801 11.7907 8.08246 11.4516 8.33968L11.0087 8.07541L10.6466 7.85882C10.2976 8.076 9.91537 8.23437 9.51507 8.32757L9.41163 8.73734L9.28549 9.23672C8.86392 9.29409 8.43653 9.29409 8.01496 9.23672L7.88888 8.73723L7.78544 8.32667C7.38529 8.23337 7.00308 8.0753 6.65393 7.85871L6.29187 8.07541L5.8489 8.33968C5.67967 8.21104 5.51928 8.07119 5.3688 7.92105C5.21854 7.77092 5.07892 7.61051 4.95096 7.44098L5.21523 6.99886L5.43103 6.63598C5.21444 6.28682 5.05637 5.90461 4.96307 5.50446L4.55332 5.40102L4.05384 5.27573C3.99565 4.85396 3.99565 4.42619 4.05384 4.00441L4.55332 3.87833L4.96307 3.77568C5.05616 3.37532 5.21456 2.99303 5.43191 2.64414L5.21529 2.28129L4.95101 1.83832C5.07919 1.66922 5.2188 1.5091 5.36885 1.35907C5.51932 1.20895 5.67969 1.0691 5.8489 0.940464L6.29187 1.20474L6.65395 1.42136C7.0029 1.20417 7.38516 1.0458 7.78547 0.952578L7.88891 0.542832L8.01499 0.0433433C8.43653 -0.0144478 8.86398 -0.0144478 9.28552 0.0433433L9.4116 0.542832L9.51504 0.952578C9.91534 1.0458 10.2976 1.20417 10.6466 1.42136L11.0087 1.20474L11.4516 0.940464C11.7904 1.19777 12.0928 1.49983 12.3504 1.83838L12.086 2.28129L11.8694 2.64338C12.086 2.99281 12.2441 3.37528 12.3374 3.77568L12.7472 3.87833L13.2466 4.00441C13.3048 4.42619 13.3048 4.85396 13.2466 5.27573ZM10.7079 2.58196C10.3754 2.24956 9.96734 2.00265 9.51861 1.86237C9.06989 1.72208 8.59385 1.69259 8.13124 1.77643C7.66863 1.86027 7.23322 2.05493 6.86226 2.34376C6.49129 2.63259 6.19583 3.00699 6.00114 3.43493C5.80645 3.86287 5.71833 4.33161 5.74433 4.80103C5.77032 5.27046 5.90965 5.7266 6.1504 6.13043C6.39115 6.53425 6.72615 6.87374 7.12674 7.11985C7.52732 7.36596 7.98156 7.51135 8.4506 7.5436V6.90922C7.77816 6.80984 7.42201 6.39387 7.38214 5.66134C7.8913 5.68884 8.24746 5.86908 8.4506 6.20206V5.42525C7.77816 5.32499 7.42201 4.90903 7.38214 4.17736C7.8913 4.20487 8.24746 4.38511 8.4506 4.71809V3.96321C8.1257 3.45239 8.19224 2.94159 8.65021 2.43081C9.10847 2.94163 9.17501 3.45243 8.84982 3.96321V4.71809C9.0535 4.38509 9.40966 4.20485 9.91831 4.17736C9.87869 4.90963 9.52253 5.32559 8.84982 5.42525V6.20198C9.0535 5.86898 9.40966 5.68874 9.91831 5.66125C9.87869 6.39352 9.52253 6.80948 8.84982 6.90914V7.54352C9.40712 7.50518 9.94161 7.30726 10.3895 6.9734C10.8373 6.63954 11.1797 6.18384 11.3756 5.6607C11.5715 5.13757 11.6127 4.5691 11.4943 4.02318C11.3759 3.47726 11.1029 2.97694 10.7079 2.58196Z" fill="white"/>
</svg>
