<svg width="14" height="14" viewBox="0 0 14 14" fill="none" xmlns="http://www.w3.org/2000/svg">
<path d="M10.9447 4.80154C10.926 4.76126 10.8961 4.72717 10.8587 4.70328C10.8212 4.67939 10.7777 4.66669 10.7333 4.66668H7.9683L10.6971 0.358176C10.7195 0.322895 10.7319 0.282263 10.7332 0.240522C10.7345 0.198782 10.7245 0.157465 10.7044 0.120887C10.6842 0.0842818 10.6546 0.0537532 10.6187 0.0324888C10.5827 0.0112244 10.5417 4.24633e-06 10.4999 0L6.76662 0C6.72327 5.72516e-06 6.68077 0.0120792 6.64389 0.0348687C6.60701 0.0576581 6.5772 0.0902639 6.5578 0.129035L3.0578 7.12904C3.04003 7.16458 3.03165 7.20407 3.03344 7.24376C3.03524 7.28346 3.04715 7.32203 3.06805 7.35582C3.08898 7.38968 3.1182 7.41763 3.15295 7.43702C3.1877 7.45642 3.22683 7.46661 3.26662 7.46665H5.66598L3.05148 13.6761C3.02993 13.7276 3.02748 13.7851 3.0446 13.8382C3.06171 13.8913 3.09726 13.9365 3.14481 13.9657C3.19242 13.9948 3.24886 14.0058 3.30394 13.9969C3.35901 13.988 3.40909 13.9597 3.44512 13.9171L10.9118 5.05047C10.9404 5.01642 10.9587 4.9749 10.9645 4.9308C10.9704 4.8867 10.9635 4.84185 10.9447 4.80154Z" fill="white"/>
</svg>
