<svg width="14" height="14" viewBox="0 0 14 14" fill="none" xmlns="http://www.w3.org/2000/svg">
<g clip-path="url(#clip0_1148_52151)">
<path d="M3.56071 3.78068L2.34781 3.87438C2.01031 3.90047 1.70972 4.07735 1.52307 4.35968L0.12426 6.4753C-0.0172977 6.6894 -0.0398015 6.95734 0.0640219 7.19206C0.167873 7.42677 0.381289 7.59034 0.6349 7.62964L1.74546 7.80163C2.00525 6.42297 2.62715 5.04769 3.56071 3.78068ZM6.19781 12.254L6.36982 13.3645C6.40912 13.6181 6.57269 13.8316 6.80738 13.9354C6.90304 13.9779 7.00654 13.9998 7.11122 13.9999C7.25813 13.9998 7.40176 13.9564 7.52416 13.8751L9.63984 12.4764C9.92216 12.2897 10.099 11.9891 10.1251 11.6516L10.2188 10.4387C8.95174 11.3723 7.57649 11.9942 6.19781 12.254ZM5.78013 11.4842C5.81869 11.4842 5.85746 11.4811 5.89615 11.4746C6.47376 11.378 7.03047 11.2153 7.56154 11.0024L2.99708 6.43792C2.78413 6.96896 2.62144 7.52568 2.52486 8.10331C2.4868 8.331 2.56317 8.56295 2.72638 8.72619L5.27327 11.2731C5.40878 11.4086 5.59168 11.4842 5.78013 11.4842ZM12.8832 6.20701C14.0001 4.04758 14.0415 1.76559 13.9831 0.695369C13.9632 0.328664 13.6708 0.0363073 13.3041 0.0163192C13.0997 0.00529761 12.8951 -0.000164007 12.6905 -5.95653e-05C11.4938 -5.95653e-05 9.60022 0.181201 7.79243 1.11627C6.35574 1.85938 4.47185 3.49565 3.36039 5.646C3.37352 5.65625 3.38634 5.66714 3.39843 5.67922L8.32027 10.6011C8.33235 10.6131 8.34321 10.6259 8.35346 10.6391C10.5038 9.52758 12.1401 7.64369 12.8832 6.20701ZM8.13963 2.9596C8.93919 2.16005 10.2402 2.15997 11.0398 2.9596C11.4272 3.34693 11.6405 3.86194 11.6405 4.40971C11.6405 4.95749 11.4272 5.4725 11.0398 5.85982C10.6401 6.25956 10.1148 6.45947 9.58974 6.45952C9.0645 6.45955 8.53948 6.25967 8.13963 5.85982C7.75229 5.4725 7.53895 4.95749 7.53895 4.40971C7.53895 3.86194 7.75229 3.34693 8.13963 2.9596Z" fill="white"/>
<path d="M8.72006 5.27995C9.1998 5.75969 9.98046 5.75972 10.4602 5.27995C10.6926 5.04753 10.8206 4.73855 10.8206 4.40988C10.8206 4.08121 10.6926 3.77223 10.4602 3.53984C10.2203 3.29995 9.90524 3.18002 9.59013 3.18002C9.27505 3.18002 8.95994 3.29995 8.72009 3.53984C8.48769 3.77223 8.35967 4.08121 8.35967 4.40988C8.35967 4.73855 8.48767 5.04756 8.72006 5.27995ZM0.418397 11.5374C0.523369 11.5374 0.628341 11.4974 0.708403 11.4173L2.0475 10.0782C2.20768 9.91799 2.20768 9.65831 2.0475 9.49813C1.88735 9.33795 1.62764 9.33795 1.46746 9.49813L0.128364 10.8372C-0.0318142 10.9974 -0.0318142 11.2571 0.128364 11.4173C0.166409 11.4554 0.211617 11.4857 0.261391 11.5063C0.311164 11.5269 0.364522 11.5375 0.418397 11.5374ZM3.2747 10.7253C3.11455 10.5652 2.85484 10.5652 2.69466 10.7253L0.120134 13.2999C-0.0400446 13.46 -0.0400446 13.7197 0.120134 13.8799C0.200223 13.96 0.305195 14 0.410167 14C0.515139 14 0.62011 13.96 0.700172 13.8799L3.27468 11.3054C3.43488 11.1452 3.43488 10.8855 3.2747 10.7253ZM3.92184 11.9525L2.58277 13.2916C2.4226 13.4518 2.4226 13.7115 2.58277 13.8717C2.66286 13.9518 2.76784 13.9918 2.87278 13.9918C2.97773 13.9918 3.08272 13.9518 3.16279 13.8717L4.50188 12.5326C4.66206 12.3724 4.66206 12.1127 4.50188 11.9525C4.34173 11.7924 4.08202 11.7924 3.92184 11.9525Z" fill="white"/>
</g>
<defs>
<clipPath id="clip0_1148_52151">
<rect width="14" height="14" fill="white"/>
</clipPath>
</defs>
</svg>
