<svg width="24" height="24" viewBox="0 0 24 24" fill="none" xmlns="http://www.w3.org/2000/svg">
<path d="M20.8574 4.29225C20.7115 4.15874 20.5327 4.06647 20.3394 4.02492C20.146 3.98337 19.9451 3.99405 19.7572 4.05585L3.54626 9.39966C3.10446 9.54528 2.80486 9.93966 2.78301 10.4043C2.76119 10.8689 3.02243 11.2897 3.44857 11.4762L7.45765 13.2303L8.66724 18.8403C8.71747 19.0734 8.83576 19.281 9.08635 19.3448C9.33982 19.4094 9.51889 19.2709 9.70802 19.1293L12.6831 16.9016L16.1612 19.7477C16.3638 19.9136 16.6114 20.0001 16.8638 20.0001C16.9862 19.9999 17.1076 19.9798 17.2234 19.9404C17.5895 19.8163 17.8609 19.5175 17.9493 19.1412L21.1889 5.36763C21.2341 5.1751 21.2272 4.974 21.169 4.78501C21.1107 4.59602 21.0032 4.42595 20.8574 4.29225ZM9.96717 14.2354C9.96519 14.2401 9.96325 14.2454 9.96141 14.2517L9.29078 16.5948L8.54236 13.1237L13.6887 10.2644L10.0906 14.0265C10.0342 14.0859 9.99198 14.1573 9.96717 14.2354ZM10.18 17.4231L10.4846 16.3589L10.776 15.3409L11.8199 16.1952L10.18 17.4231ZM20.1349 5.11968L16.8953 18.8933C16.8937 18.9001 16.8915 18.9096 16.8757 18.9149C16.86 18.9203 16.8524 18.9142 16.847 18.9097L13.0411 15.7953L13.0408 15.7951L11.2775 14.3521L16.9426 8.42867C17.0321 8.33505 17.0851 8.21243 17.0919 8.08307C17.0988 7.95371 17.059 7.82619 16.9798 7.72365C16.9007 7.62109 16.7874 7.55033 16.6605 7.5242C16.5336 7.49807 16.4015 7.5183 16.2883 7.58123L7.89992 12.2419L3.88262 10.4842C3.87038 10.4788 3.86364 10.4758 3.86462 10.4551C3.86559 10.4345 3.87257 10.4322 3.88525 10.428L20.0962 5.08421C20.104 5.08165 20.1129 5.0787 20.1259 5.09058C20.139 5.10253 20.1368 5.11161 20.1349 5.11968Z" fill="white"/>
</svg>
