
<svg width="37" height="37" viewBox="0 0 37 37" fill="none" xmlns="http://www.w3.org/2000/svg">
<circle cx="18.5" cy="18.5" r="18.5" fill="#306B4B"/>
<path d="M5.32225 8.27079C7.74647 5.14773 12.6802 6.44066 16.3418 11.1585C20.0034 15.8764 21.0061 22.2334 18.582 25.3567C16.1577 28.4796 11.224 27.1868 7.56248 22.469C3.90093 17.7511 2.89815 11.3941 5.32225 8.27079ZM14.5176 14.8118C11.2506 11.5254 7.47813 10.7164 6.09178 13.0042C4.70579 15.2921 6.23028 19.8106 9.49705 23.097C12.7641 26.3836 16.5365 27.1934 17.9228 24.9056C19.3092 22.6177 17.7846 18.0984 14.5176 14.8118Z" fill="url(#paint0_linear_6930_10163)"/>
<path d="M32.6778 27.9409C30.2535 31.0639 25.3198 29.771 21.6582 25.0532C17.9966 20.3353 16.9939 13.9783 19.418 10.855C21.8423 7.73207 26.776 9.02491 30.4375 13.7427C34.0991 18.4606 35.1019 24.8176 32.6778 27.9409ZM23.5215 21.4477C26.7884 24.734 30.5609 25.5439 31.9473 23.2563C33.3336 20.9686 31.8089 16.4492 28.542 13.1626C25.2751 9.87607 21.5027 9.06636 20.1162 11.354C18.7299 13.6418 20.2545 18.1612 23.5215 21.4477Z" fill="url(#paint1_linear_6930_10163)"/>
<path d="M19.8953 3H23.5098L18.1884 33H14.5739L19.8953 3Z" fill="#F2F2F3"/>
<defs>
<linearGradient id="paint0_linear_6930_10163" x1="13.6573" y1="22.483" x2="16.5551" y2="26.1374" gradientUnits="userSpaceOnUse">
<stop stop-color="#F2F2F3"/>
<stop offset="1" stop-color="#F2F2F3" stop-opacity="0"/>
</linearGradient>
<linearGradient id="paint1_linear_6930_10163" x1="23.5764" y1="15.9342" x2="21.5091" y2="9.66605" gradientUnits="userSpaceOnUse">
<stop stop-color="#F2F2F3"/>
<stop offset="1" stop-color="#F2F2F3" stop-opacity="0"/>
</linearGradient>
</defs>
</svg>
