<svg width="148" height="148" viewBox="0 0 148 148" fill="none" xmlns="http://www.w3.org/2000/svg">
<path d="M67.0613 80.5822C53.4224 76.3856 44.0469 63.774 44.1144 49.5223C44.263 30.8658 60.1935 16.4848 78.7233 18.0985C90.3313 19.1448 100.658 26.6376 105.357 37.2615C105.903 38.5518 106.392 39.8707 106.823 41.2182C106.421 40.014 105.932 38.8383 105.357 37.6913C101.478 29.5187 93.6896 23.4477 84.8317 21.5451C69.1798 18.0865 53.5007 27.2233 48.533 42.3488C43.3421 57.9738 51.3497 75.1854 67.0583 80.5707C67.0593 80.5745 67.0603 80.5784 67.0613 80.5822Z" fill="url(#paint0_linear_2102_5968)"/>
<path d="M67.0666 80.6026C58.8895 78.5964 51.6149 73.1297 47.359 65.9047C41.6298 56.4832 41.2705 44.1883 46.2879 34.4363C55.036 17.3381 76.6514 11.3898 92.9139 21.8133C94.7208 22.9332 96.399 24.2679 97.9484 25.7315C97.9604 25.743 97.9724 25.7545 97.9843 25.7661C97.8384 25.6151 97.6908 25.465 97.5417 25.3159C84.002 11.7762 62.6472 11.1783 49.8447 23.9807C37.0422 36.7832 37.6401 58.138 51.1798 71.6777C55.8149 76.3128 61.3662 79.4315 67.1762 81.0146C67.1388 80.8774 67.1023 80.7401 67.0666 80.6026Z" fill="url(#paint1_linear_2102_5968)"/>
<path d="M106.625 40.4287C106.714 40.7225 106.798 41.017 106.879 41.3122C106.378 41.1757 105.875 41.0506 105.37 40.937C105.856 41.0197 106.341 41.1135 106.823 41.2182C106.761 40.9542 106.695 40.691 106.625 40.4287Z" fill="url(#paint2_linear_2102_5968)"/>
<path d="M66.0609 74.6313C65.3559 68.1863 66.6962 61.464 69.9151 55.8308C77.035 43.0293 92.8035 36.5579 106.823 41.2182C103.546 32.9604 96.5735 26.4175 88.1875 23.6987C70.9423 18.0457 52.6428 28.6838 48.9249 46.3471C45.9142 60.6335 53.5706 75.018 67.0524 80.5476C67.0506 80.5406 67.0488 80.5336 67.047 80.5266C55.1285 74.923 49.0549 61.7951 51.7231 48.9733C54.3722 36.0803 65.4077 26.1639 78.5606 25.0627C85.1799 24.4692 92.1032 26.2403 97.5245 30.116C101.526 32.9153 104.84 36.8309 106.823 41.2182C104.109 36.1852 99.8914 32.1394 94.9015 29.4679C91.9334 27.9596 88.6651 26.9238 85.3974 26.4899C64.4161 23.8843 47.5039 43.8955 53.6766 64.1505C55.8405 71.0418 60.7035 76.9806 67.039 80.4956C67.0357 80.4825 67.0323 80.4693 67.029 80.4562C58.7715 7{positionManager.borrowApy}93 54.3775 65.3927 55.2983 55.5541C56.3578 43.3898 65.2432 32.9549 77.1041 29.9606C78.0066 29.7468 79.2099 29.4904 80.1125 29.3626C81.144 29.1919 82.1756 29.1072 83.2502 29.0656C83.5157 29.0364 83.9433 29.0479 84.3244 29.0582C84.4985 29.0629 84.663 29.0673 84.7978 29.0675C85.0557 29.0678 85.3996 29.0898 85.7435 29.1117C86.0874 29.1336 86.4314 29.1555 86.6894 29.1559C86.8182 29.1703 86.9565 29.1848 87.0948 29.1993C87.3719 29.2283 87.6496 29.2574 87.8502 29.2863L88.6671 29.4163L89.0541 29.4597C89.871 29.5897 90.86 29.8059 91.677 30.0219C97.8265 31.7921 103.421 35.8404 106.823 41.2182C102.991 36.1838 97.5265 32.5225 91.4204 31.0533C90.6464 30.8803 89.7005 30.7072 88.8835 30.5772C88.6685 30.534 87.9806 30.4471 87.7227 30.4468C87.3358 30.4033 86.6909 30.3595 86.261 30.359C69.3657 29.5211 55.2408 43.9903 56.5086 60.8861C57.0243 68.4786 60.9747 75.7035 67.0163 80.4063C67.0088 80.3768 67.0014 80.3474 66.994 80.318C59.0392 72.558 57.0071 60.6448 61.3971 50.4901C65.7261 40.2215 76.0772 33.0555 87.2969 33.0265C90.9078 32.9451 94.6056 33.6375 97.9605 35.1033C101.272 36.526 104.37 38.5928 106.823 41.2182C95.892 31.3173 78.8272 32.1132 68.6091 42.5034C58.3155 52.712 57.403 69.2088 66.972 80.2294C66.9492 80.1376 66.9268 80.0457 66.9048 79.9537C64.311 75.7598 62.8786 70.8429 62.7912 65.9665C62.7907 65.5796 62.8117 65.1713 62.8327 64.7629C62.8537 64.3546 62.8746 63.9462 62.8742 63.5593C62.888 63.4047 62.911 63.2043 62.9357 62.9894L62.9358 62.9881C62.9865 62.5461 63.0442 62.043 63.0439 61.754C63.1427 61.4068 63.1985 61.0451 63.2527 60.694C63.2924 60.4368 63.3313 60.1852 63.3855 59.949C63.4282 59.7342 63.503 59.4012 63.5778 59.0683C63.6526 58.7352 63.7275 58.4018 63.7702 58.187C63.8344 57.9936 63.9415 57.6498 64.0485 57.3061C64.1556 56.9623 64.2626 56.6185 64.3268 56.4251C64.3911 56.2318 64.5196 55.9095 64.6482 55.5873C64.7767 55.265 64.9053 54.9428 64.9695 54.7494C65.0553 54.5776 65.1946 54.2446 65.3339 53.9116C65.4732 53.5787 65.6125 53.2456 65.6982 53.0738C67.6277 49.0784 70.5465 45.557 74.068 42.8102C75.657 41.5655 77.4182 40.4931 79.2225 39.5496C79.2826 39.5239 79.3719 39.4862 79.479 39.441C79.908 39.2599 80.6231 38.9581 80.8981 38.8209C81.2418 38.6494 82.1871 38.3066 82.5738 38.1782C82.7457 38.1354 83.0895 38.0284 83.4333 37.9213C83.777 37.8143 84.1208 37.7072 84.2927 37.6645C84.529 37.6003 84.8621 37.5255 85.1952 37.4507C85.5282 37.3758 85.8613 37.301 86.0976 37.2368C86.3769 37.1727 86.6778 37.1301 86.9786 37.0875C87.2794 37.0449 87.5805 37.0023 87.8598 36.9381C88.0956 36.917 88.4277 36.8853 88.7601 36.8535L88.7624 36.8533L88.7652 36.853L88.7666 36.8529C89.0983 36.8212 89.4296 36.7895 89.665 36.7684C90.0247 36.7175 90.3998 36.7126 90.7627 36.708L90.7639 36.7079C91.0077 36.7048 91.246 36.7017 91.4704 36.6847C91.7283 36.685 92.0614 36.6962 92.3945 36.7074C92.7277 36.7185 93.061 36.7297 93.319 36.73C93.4315 36.7462 93.6642 36.7626 93.9295 36.7813C94.3737 36.8125 94.9093 36.8501 95.1247 36.9042C96.8874 37.1214 98.6935 37.5535 100.371 38.1145C102.65 38.8481 104.844 39.9261 106.823 41.2182C103.339 39.4513 99.4681 38.2423 95.5988 37.8936L94.9968 37.8068L94.4379 37.7631L93.2772 37.7187L92.1166 37.7602C91.3428 37.7593 90.5691 37.8443 89.7955 37.9293C89.3226 37.9717 88.506 38.0996 88.0763 38.1851C87.7969 38.2492 87.5068 38.3026 87.2167 38.3559C86.9266 38.4093 86.6365 38.4627 86.3572 38.5268L85.2398 38.7833C84.9391 38.9119 84.4664 39.0403 84.1226 39.1258L83.0483 39.5114C82.855 39.5756 82.5435 39.6934 82.232 39.8113C81.9204 39.9291 81.6089 40.0469 81.4156 40.1112C79.4822 41.0115 77.5921 42.0408 75.9171 43.2854C75.8147 43.3878 75.6633 43.5 75.505 43.6173C75.3316 43.7457 75.1499 43.8804 75.0153 44.015L74.1134 44.7447C73.8558 44.9593 73.5552 45.2384 73.2546 45.5174C72.9541 45.7965 72.6535 46.0755 72.3958 46.2901C72.1812 46.5478 71.9022 46.8483 71.6231 47.1489C71.3441 47.4495 71.0651 47.75 70.8504 48.0077C70.786 48.0721 70.5929 48.3083 70.3997 48.5445C70.2066 48.7807 70.0134 49.0169 69.949 49.0813C69.8633 49.2531 69.5629 49.6396 69.4341 49.7684C68.4899 51.0569 67.7608 52.3886 67.0317 53.7203C66.9031 54.0211 66.7209 54.397 66.5386 54.7729C66.3564 55.1488 66.1742 55.5247 66.0456 55.8255L65.2745 57.9739C65.1459 58.2747 64.9746 58.7903 64.932 59.0912L64.6325 60.2514C64.5043 60.8101 64.376 61.3688 64.2908 61.9705C64.2054 62.4003 64.0774 63.2169 64.035 63.6897L63.9082 65.3661C63.9085 65.6352 63.8972 65.9863 63.8865 66.3215L63.8864 66.3234L63.8864 66.3249C63.8765 66.631 63.8671 66.9237 63.8674 67.1286C63.9107 67.4294 63.9122 68.6322 63.9126 68.8908C64.2275 72.6146 65.2077 76.235 66.8205 79.5927C66.4459 77.9503 66.1926 76.2916 66.0609 74.6313Z" fill="url(#paint3_linear_2102_5968)"/>
<path d="M80.5905 66.4959C94.2294 70.6925 103.605 83.3042 103.537 97.5558C103.389 116.212 87.4584 130.593 68.9286 128.98C57.3206 127.933 46.9941 120.441 42.2951 109.817C41.749 108.526 41.2601 107.207 40.8285 105.86C41.2312 107.064 41.7201 108.24 42.2947 109.387C46.1739 117.559 53.9623 123.63 62.8201 125.533C78.472 128.992 94.1512 119.855 99.1188 104.729C104.31 89.1043 96.3021 71.8927 80.5935 66.5075C80.5925 66.5036 80.5915 66.4998 80.5905 66.4959Z" fill="url(#paint4_linear_2102_5968)"/>
<path d="M80.5853 66.4756C88.7624 68.4818 96.0369 73.9484 100.293 81.1734C106.022 90.5949 106.381 102.89 101.364 112.642C92.6158 129.74 71.0004 135.688 54.738 125.265C52.9311 124.145 51.2529 122.81 49.7035 121.347C49.6915 121.335 49.6795 121.324 49.6675 121.312C49.8135 121.463 49.961 121.613 50.1102 121.762C63.6499 135.302 85.0047 135.9 97.8072 123.097C110.61 110.295 110.012 88.9401 96.472 75.4004C91.837 70.7653 86.2857 67.6466 80.4757 66.0635C80.513 66.2007 80.5496 66.3381 80.5853 66.4756Z" fill="url(#paint5_linear_2102_5968)"/>
<path d="M41.0265 106.649C40.9381 106.356 40.8537 106.061 40.7733 105.766C41.2743 105.902 41.7771 106.027 42.2815 106.141C41.7958 106.058 41.3113 105.965 40.8285 105.86C40.8909 106.124 40.957 106.387 41.0265 106.649Z" fill="url(#paint6_linear_2102_5968)"/>
<path d="M81.591 72.4469C82.296 78.8918 80.9557 85.6141 77.7368 91.2473C70.6168 104.049 54.8484 110.52 40.8285 105.86C44.1059 114.118 51.0784 120.661 59.4644 123.379C76.7096 129.032 95.0091 118.394 98.7269 100.731C101.738 86.4446 94.0812 72.0601 80.5995 66.5305C80.6013 66.5375 80.6031 66.5445 80.6049 66.5515C92.5233 72.1551 98.597 85.283 95.9287 98.1048C93.2796 110.998 82.2442 120.914 69.0913 122.015C62.4719 122.609 55.5486 120.838 50.1273 116.962C46.1259 114.163 42.8115 110.247 40.8285 105.86C43.5431 110.893 47.7604 114.939 52.7504 117.61C55.7184 119.118 58.9868 120.154 62.2544 120.588C83.2358 123.194 100.148 103.183 93.9753 82.9276C91.8113 76.0363 86.9484 70.0975 80.6128 66.5826C80.6162 66.5957 80.6195 66.6088 80.6229 66.6219C88.8804 72.0488 93.2743 81.6854 92.3535 91.524C91.2941 103.688 82.4087 114.123 70.5478 117.118C69.6453 117.331 68.4419 117.588 67.5394 117.716C66.5079 117.886 65.4763 117.971 64.4016 118.013C64.1361 118.042 63.7085 118.03 63.3275 118.02C63.1534 118.015 62.9889 118.011 62.8541 118.011C62.5962 118.01 62.2523 117.988 61.9084 117.966C61.5644 117.945 61.2204 117.923 60.9625 117.922C60.8337 117.908 60.6954 117.893 60.557 117.879C60.28 117.85 60.0023 117.821 59.8017 117.792L58.9847 117.662L58.5978 117.618C57.7808 117.488 56.7919 117.272 55.9748 117.056C49.8253 115.286 44.2313 111.238 40.8285 105.86C44.6607 110.894 50.1253 114.556 56.2314 116.025C57.0054 116.198 57.9514 116.371 58.7683 116.501C58.9833 116.544 59.6712 116.631 59.9292 116.631C60.3161 116.675 60.961 116.719 61.3909 116.719C78.2861 117.557 92.411 103.088 91.1432 86.192C90.6276 78.5995 86.6772 71.3746 80.6356 66.6719C80.643 66.7013 80.6505 66.7307 80.6578 66.7601C88.6126 74.5202 90.6447 86.4333 86.2547 96.588C81.9258 106.857 71.5747 114.023 60.3549 114.052C56.744 114.133 53.0462 113.441 49.6913 111.975C46.3795 110.552 43.2821 108.485 40.8285 105.86C51.7598 115.761 68.8247 114.965 79.0428 104.575C89.3363 94.3661 90.2489 77.8693 80.6799 66.8487C80.7027 66.9405 80.725 67.0324 80.747 67.1244C83.3409 71.3183 84.7733 76.2352 84.8607 81.1116C84.8611 81.4985 84.8402 81.9069 84.8192 82.3152C84.7982 82.7236 84.7772 83.1319 84.7777 83.5188C84.7638 83.6734 84.7408 83.8739 84.7162 84.0887L84.716 84.09C84.6653 84.5321 84.6076 85.0351 84.608 85.3241C84.5092 85.6714 84.4533 86.033 84.3991 86.3842C84.3594 86.6414 84.3206 86.893 84.2663 87.1292C84.2236 87.344 84.1489 87.6769 84.0741 88.0098C83.9993 88.3429 83.9244 88.6763 83.8816 88.8912C83.8174 89.0845 83.7104 89.4283 83.6033 89.7721C83.4963 90.1158 83.3893 90.4596 83.325 90.653C83.2608 90.8463 83.1322 91.1686 83.0037 91.4908C82.8751 91.8131 82.7466 92.1353 82.6823 92.3287C82.5966 92.5005 82.4573 92.8335 82.318 93.1665C82.1787 93.4994 82.0393 93.8325 81.9536 94.0043C80.0242 97.9998 77.1054 101.521 73.5838 104.268C71.9948 105.513 70.2337 106.585 68.4294 107.529C68.3693 107.554 68.28 107.592 68.1728 107.637C67.7439 107.818 67.0287 108.12 66.7538 108.257C66.4101 108.429 65.4648 108.771 65.078 108.9C64.9061 108.943 64.5624 109.05 64.2186 109.157C63.8748 109.264 63.5311 109.371 63.3592 109.414C63.1228 109.478 62.7898 109.553 62.4567 109.627C62.1236 109.702 61.7906 109.777 61.5542 109.841C61.2749 109.905 60.9741 109.948 60.6733 109.991C60.3725 110.033 60.0714 110.076 59.7921 110.14C59.5562 110.161 59.2241 110.193 58.8918 110.225L58.8895 110.225L58.8867 110.225L58.8852 110.225C58.5535 110.257 58.2222 110.289 57.9868 110.31C57.6271 110.361 57.252 110.365 56.8891 110.37L56.8879 110.37C56.6441 110.373 56.4058 110.376 56.1814 110.393C55.9236 110.393 55.5905 110.382 55.2574 110.371C54.9242 110.36 54.5908 110.348 54.3329 110.348C54.2204 110.332 53.9876 110.316 53.7223 110.297C53.2782 110.266 52.7426 110.228 52.5272 110.174C50.7644 109.957 48.9584 109.525 47.2812 108.964C45.0019 108.23 42.8076 107.152 40.8285 105.86C44.3127 107.627 48.1837 108.836 52.0531 109.185L52.655 109.271L53.2139 109.315L54.3746 109.359L55.5353 109.318C56.3091 109.319 57.0827 109.234 57.8564 109.149C58.3292 109.106 59.1458 108.978 59.5756 108.893C59.8549 108.829 60.145 108.776 60.4352 108.722C60.7253 108.669 61.0153 108.615 61.2947 108.551L62.412 108.295C62.7128 108.166 63.1855 108.038 63.5293 107.952L64.6035 107.567C64.7969 107.503 65.1084 107.385 65.4199 107.267C65.7314 107.149 66.0429 107.031 66.2363 106.967C68.1696 106.067 70.0598 105.037 71.7348 103.793C71.8372 103.69 71.9886 103.578 72.1469 103.461C72.3202 103.332 72.5019 103.198 72.6366 103.063L73.5384 102.333C73.7961 102.119 74.0967 101.84 74.3972 101.561C74.6978 101.282 74.9984 101.003 75.256 100.788C75.4706 100.53 75.7497 100.23 76.0287 99.9292C76.3078 99.6287 76.5868 99.3281 76.8014 99.0704C76.8658 99.006 77.059 98.7698 77.2521 98.5336C77.4453 98.2975 77.6384 98.0613 77.7028 97.9969C77.7886 97.825 78.089 97.4385 78.2178 97.3097C79.1619 96.0212 79.8911 94.6895 80.6202 93.3578C80.7488 93.0571 80.931 92.6812 81.1132 92.3052C81.2955 91.9293 81.4777 91.5534 81.6063 91.2527L82.3773 89.1042C82.5059 88.8035 82.6773 88.2878 82.7199 87.987L83.0193 86.8267C83.1476 86.268 83.2758 85.7093 83.3611 85.1076C83.4465 84.6778 83.5745 83.8612 83.6169 83.3884L83.7437 81.712C83.7434 81.4429 83.7546 81.0919 83.7654 80.7566L83.7655 80.7547L83.7655 80.7532C83.7753 80.4471 83.7847 80.1544 83.7845 79.9496C83.7411 79.6487 83.7396 78.4459 83.7393 78.1873C83.4243 74.4635 82.4442 70.8431 80.8314 67.4854C81.2059 69.1278 81.4592 70.7865 81.591 72.4469Z" fill="url(#paint7_linear_2102_5968)"/>
<path d="M67.511 66.6834C71.5555 53.0905 84.0633 43.8553 98.3166 44.0819C116.976 44.4389 131.536 60.5309 130.129 79.0439C129.212 90.6409 121.834 100.884 111.262 105.465C109.978 105.997 108.664 106.471 107.322 106.887C108.521 106.498 109.692 106.022 110.832 105.461C118.962 101.672 124.946 93.9514 126.75 85.1142C130.034 69.4999 120.722 53.7178 105.54 48.5809C89.8559 43.2152 72.7327 51.0311 67.5225 66.6805C67.5187 66.6815 67.5148 66.6824 67.511 66.6834Z" fill="url(#paint8_linear_2102_5968)"/>
<path d="M67.4907 66.6884C69.4057 58.5332 74.7914 51.3192 81.9694 47.1438C91.3275 41.5194 103.619 41.2974 113.428 46.424C130.625 55.3636 136.815 77.0468 126.572 93.1939C125.472 94.9884 124.156 96.6518 122.71 98.185C122.699 98.1968 122.687 98.2087 122.676 98.2205C122.825 98.0762 122.974 97.9303 123.121 97.7829C136.511 84.3935 136.87 63.0441 123.924 50.0978C110.977 37.1515 89.628 37.511 76.2387 50.9003C71.6551 55.4839 68.5982 61.0007 67.0799 66.7934C67.2167 66.7576 67.3536 66.7226 67.4907 66.6884Z" fill="url(#paint9_linear_2102_5968)"/>
<path d="M108.109 106.698C107.816 106.783 107.522 106.865 107.228 106.942C107.359 106.442 107.478 105.941 107.587 105.438C107.509 105.922 107.421 106.406 107.322 106.887C107.585 106.828 107.847 106.765 108.109 106.698Z" fill="url(#paint10_linear_2102_5968)"/>
<path d="M73.4511 65.7493C79.8886 65.1163 86.6263 66.5317 92.2958 69.8137C105.178 77.0771 111.825 92.9188 107.322 106.887C115.543 103.702 122.009 96.8023 124.634 88.4461C130.095 71.263 119.252 52.8435 101.546 48.9282C87.2247 45.7577 72.9249 53.254 67.5455 66.6748C67.5524 66.6731 67.5594 66.6714 67.5664 66.6697C73.0372 54.813 86.0982 48.8856 98.9505 51.6972C111.874 54.4905 121.914 65.6374 123.162 78.8034C123.83 85.4298 122.136 92.3337 118.321 97.7121C115.566 101.682 111.687 104.953 107.322 106.887C112.325 104.229 116.323 100.057 118.939 95.0961C120.415 92.1447 121.414 88.8877 121.811 85.6247C124.183 64.6712 103.982 47.5345 83.7943 53.4813C76.9266 55.5684 71.0418 60.3653 67.5974 66.662C67.6105 66.6588 67.6235 66.6556 67.6366 66.6524C72.9717 58.455 82.5598 54.1685 92.4093 55.1992C104.586 56.3945 115.121 65.397 118.248 77.2921C118.472 78.197 118.742 79.4033 118.88 80.3074C119.062 81.3409 119.158 82.3735 119.212 83.4486C119.244 83.7145 119.237 84.142 119.231 84.523C119.228 84.697 119.226 84.8615 119.227 84.9963C119.23 85.2542 119.211 85.5979 119.193 85.9415C119.175 86.2853 119.157 86.629 119.16 86.887C119.147 87.0156 119.134 87.1538 119.121 87.292C119.095 87.5687 119.069 87.8461 119.042 88.0464L118.921 88.862L118.882 89.2485C118.761 90.064 118.556 91.0506 118.349 91.8653C116.648 97.9954 112.662 103.545 107.322 106.887C112.313 103.111 115.914 97.6872 117.315 91.5971C117.479 90.825 117.642 89.8809 117.763 89.0654C117.804 88.8509 117.883 88.1639 117.88 87.906C117.919 87.5195 117.956 86.875 117.952 86.4451C118.601 69.5582 103.973 55.2708 87.0905 56.35C79.5032 56.7809 72.322 60.6509 67.6864 66.6403C67.7158 66.6332 67.7451 66.6261 67.7745 66.619C75.4461 58.7504 87.3374 56.8512 97.5417 61.3549C107.859 65.7988 115.141 76.2305 115.296 87.4514C115.417 91.0634 114.766 94.7537 113.338 98.0924C111.952 101.389 109.92 104.463 107.322 106.887C117.101 96.0661 116.114 78.9913 105.609 68.6565C95.2852 58.2483 78.7773 57.1514 67.8628 66.598C67.9544 66.5762 68.0461 66.5549 68.1378 66.5339C72.3029 63.9867 77.2042 62.6092 82.0799 62.5762C82.4668 62.5801 82.8754 62.6056 83.284 62.6312C83.6927 62.6567 84.1013 62.6822 84.4882 62.6861C84.6429 62.7017 84.8437 62.7269 85.0588 62.7539L85.0601 62.7541C85.5028 62.8098 86.0065 62.8731 86.2955 62.876C86.6439 62.9787 87.0062 63.0385 87.358 63.0967C87.6156 63.1393 87.8677 63.1809 88.1045 63.2378C88.3198 63.2829 88.6535 63.3614 88.9873 63.4399C89.3213 63.5184 89.6555 63.597 89.8709 63.6422C90.065 63.7086 90.41 63.8195 90.755 63.9303C91.0999 64.0412 91.4449 64.1521 91.639 64.2185C91.8331 64.2849 92.1568 64.4171 92.4805 64.5492C92.8042 64.6814 93.1279 64.8136 93.322 64.88C93.4948 64.9677 93.8294 65.1107 94.164 65.2537C94.4984 65.3967 94.8331 65.5398 95.0059 65.6274C99.0231 67.6016 102.577 70.5599 105.364 74.1124C106.626 75.7153 107.718 77.4886 108.682 79.3036C108.708 79.364 108.747 79.4537 108.793 79.5613C108.979 79.9923 109.289 80.7109 109.429 80.9874C109.605 81.333 109.958 82.2822 110.091 82.6704C110.136 82.8428 110.247 83.1878 110.357 83.5328C110.468 83.8778 110.579 84.2228 110.624 84.3951C110.691 84.6322 110.769 84.9661 110.848 85.3C110.926 85.634 111.005 85.9679 111.072 86.205C111.139 86.485 111.185 86.7863 111.231 87.0876C111.277 87.3889 111.323 87.6905 111.39 87.9705C111.414 88.2067 111.449 88.5391 111.485 88.8719L111.485 88.8742L111.485 88.877L111.485 88.8784C111.521 89.2105 111.556 89.5422 111.58 89.7778C111.635 90.1381 111.644 90.5133 111.653 90.8763L111.653 90.8775C111.659 91.1213 111.664 91.3596 111.684 91.5842C111.686 91.8421 111.679 92.1751 111.671 92.5081C111.664 92.8412 111.657 93.1745 111.659 93.4324C111.644 93.5448 111.63 93.7773 111.615 94.0424C111.588 94.4863 111.557 9{positionManager.borrowApy}15 111.505 95.2363C111.308 96.9967 110.896 98.798 110.353 100.469C109.645 102.74 108.592 104.923 107.322 106.887C109.05 103.423 110.215 99.5651 110.521 95.6994L110.601 95.0984L110.638 94.5399L110.67 93.3796L110.615 92.2184C110.608 91.4446 110.514 90.67 110.42 89.8953C110.373 89.422 110.236 88.6039 110.145 88.1731C110.078 87.8931 110.022 87.6023 109.965 87.3116C109.908 87.0209 109.852 86.7302 109.785 86.4501L109.515 85.3298C109.384 8{positionManager.borrowApy}76 109.25 84.5535 109.16 84.2087L108.763 83.1301C108.697 82.936 108.575 82.6231 108.454 82.3103C108.333 81.9974 108.211 81.6846 108.145 81.4905C107.223 79.547 106.172 77.6452 104.909 75.9562C104.805 75.8526 104.692 75.7 104.573 75.5404C104.442 75.3656 104.305 75.1824 104.169 75.0462L103.429 74.1362C103.212 73.8761 102.93 73.5724 102.647 73.2687C102.365 72.965 102.082 72.6613 101.865 72.4012C101.605 72.1837 101.301 71.9013 100.997 71.6189C100.694 71.3364 100.39 71.054 100.13 70.8365C100.065 70.7714 99.8264 70.5756 99.588 70.3798C99.3496 70.184 99.1113 69.9882 99.0461 69.9231C98.8733 69.8354 98.4834 69.5306 98.3532 69.4004C97.0541 68.4418 95.7142 67.6978 94.3742 66.9537C94.072 66.8218 93.6941 66.6353 93.3161 66.4489C92.9381 66.2625 92.5601 66.076 92.2579 65.9441L90.1007 65.149C89.7985 65.017 89.281 64.8399 88.9796 64.7939L87.8159 64.4815C87.2557 64.347 86.6956 64.2125 86.0929 64.1205C85.6621 64.0303 84.8441 63.8932 84.3707 63.8455L82.6928 63.7C82.4237 63.6973 82.0725 63.6821 81.7371 63.6676L81.7352 63.6675L81.7337 63.6674C81.4275 63.6542 81.1347 63.6415 80.9298 63.6395C80.6294 63.6795 79.4266 63.6676 79.168 63.665C75.4474 63.9384 71.8377 64.8782 68.4978 66.4536C70.1362 66.0974 71.7921 65.8625 73.4511 65.7493Z" fill="url(#paint11_linear_2102_5968)"/>
<path d="M80.1409 80.3947C76.0963 93.9876 63.5886 103.223 49.3353 102.996C30.6759 102.639 16.1161 86.5472 17.5231 68.0343C18.4397 56.4372 25.8177 46.1938 36.3898 41.6131C37.6741 41.0814 38.9876 40.6072 40.3303 40.1906C39.1306 40.5799 37.9603 41.0557 36.8196 41.6175C28.6898 45.4056 22.7054 53.1267 20.9016 61.9639C17.6176 77.5782 26.93 93.3603 42.112 98.4972C57.7959 103.863 74.9192 96.047 80.1294 80.3976C80.1332 80.3966 80.137 80.3957 80.1409 80.3947Z" fill="url(#paint12_linear_2102_5968)"/>
<path d="M80.1612 80.3897C78.2461 88.5449 72.8604 95.7589 65.6825 99.9344C56.3244 105.559 44.0327 105.781 34.2241 100.654C17.0271 91.7145 10.8371 70.0313 21.0795 53.8842C22.1794 52.0897 23.4954 50.4263 24.9418 48.8932C24.9531 48.8813 24.9645 48.8694 24.9759 48.8576C24.8266 49.0019 24.6781 49.1478 24.5307 49.2953C11.1413 62.6846 10.7819 84.0341 23.7281 96.9803C36.6744 109.927 58.0239 109.567 71.4132 96.1778C75.9968 91.5942 79.0537 86.0774 80.572 80.2847C80.4352 80.3205 80.2983 80.3555 80.1612 80.3897Z" fill="url(#paint13_linear_2102_5968)"/>
<path d="M39.543 40.3798C39.8359 40.2947 40.1294 40.2136 40.4238 40.1365C40.2929 40.6359 40.1734 41.1374 40.0653 41.6406C40.1427 41.1558 40.231 40.6723 40.3303 40.1906C40.067 40.2501 39.8046 40.3132 39.543 40.3798Z" fill="url(#paint14_linear_2102_5968)"/>
<path d="M74.2007 81.3288C67.7633 81.9619 61.0255 80.5464 55.356 77.2644C42.4743 70.001 35.8264 54.1593 40.3303 40.1906C32.1086 43.376 25.6431 50.2758 23.0179 58.632C17.5571 75.8152 28.4002 94.2346 46.1062 98.1499C60.4271 101.32 74.727 93.8241 80.1064 80.4033C80.0994 80.405 80.0924 80.4067 80.0855 80.4084C74.6146 92.2651 61.5537 98.1925 48.7013 95.3809C35.7779 92.5876 25.7376 81.4408 24.4895 68.2747C23.822 61.6483 25.5159 54.7444 29.3313 49.366C32.086 45.3957 35.965 42.1247 40.3303 40.1906C35.3274 42.8491 31.3284 47.0216 28.7125 51.982C27.2372 54.9334 26.2379 58.1904 25.8404 61.4534C23.469 82.4069 43.6702 99.5436 63.8576 93.5968C70.7252 91.5097 76.6101 86.7128 80.0545 80.4161C80.0414 80.4193 80.0283 80.4225 80.0152 80.4257C74.6802 88.6231 65.0921 92.9097 55.2425 91.879C43.0657 90.6836 32.5309 81.6811 29.404 69.786C29.1801 68.8811 28.9102 67.6748 28.7723 66.7707C28.5901 65.7373 28.4939 64.7047 28.4402 63.6295C28.4081 63.3636 28.4148 62.9362 28.4209 62.5552C28.4236 62.3811 28.4262 62.2167 28.4249 62.0819C28.4223 61.8239 28.4404 61.4803 28.4585 61.1366C28.4766 60.7929 28.4947 60.4491 28.4921 60.1912C28.5051 60.0625 28.5181 59.9243 28.531 59.7862C28.5569 59.5094 28.5829 59.232 28.6096 59.0317L28.7305 58.2162L28.7696 57.8297C28.8905 57.0141 29.0956 56.0275 29.3025 55.2128C31.0041 49.0827 34.9903 43.5336 40.3303 40.1906C35.3384 43.9669 31.7379 49.3909 30.3368 55.481C30.1725 56.2531 30.0099 57.1972 29.889 58.0127C29.8482 58.2272 29.769 58.9142 29.7716 59.1722C29.7324 59.5587 29.6958 60.2031 29.7001 60.633C29.0508 77.5199 43.6786 91.8073 60.5614 90.7281C68.1486 90.2972 75.3299 86.4273 79.9654 80.4378C79.9361 80.4449 79.9067 80.452 79.8774 80.4591C72.2057 88.3277 60.3145 90.2269 50.1102 85.7232C39.7925 81.2793 32.5105 70.8476 32.3562 59.6268C32.2344 56.0147 32.8856 52.3244 34.314 48.9857C35.6999 45.6895 37.7322 42.6151 40.3303 40.1906C30.5509 51.0121 31.5374 68.0868 42.0424 78.4216C52.3666 88.8298 68.8746 89.9267 79.7891 80.4802C79.6975 80.5019 79.6058 80.5233 79.5141 80.5442C75.3489 83.0914 70.4477 84.469 65.572 84.5019C65.185 84.4981 64.7764 84.4725 64.3678 84.447C63.9592 84.4214 63.5506 84.3959 63.1637 84.392C63.0089 84.3765 62.8082 84.3512 62.593 84.3242L62.5917 84.324C62.1491 84.2684 61.6454 84.205 61.3564 84.2022C61.008 84.0995 60.6457 84.0396 60.2939 83.9814C60.0362 83.9389 59.7842 83.8972 59.5474 83.8404C59.3321 83.7952 58.9983 83.7167 58.6645 83.6382C58.3306 83.5597 57.9963 83.4811 57.781 83.436C57.5869 83.3695 57.2419 83.2587 56.8969 83.1478C56.5519 83.0369 56.2069 82.926 56.0128 82.8596C55.8187 82.7932 55.495 82.6611 55.1713 82.5289C54.8476 82.3967 54.5239 82.2646 54.3298 82.1981C54.157 82.1105 53.8225 81.9674 53.4879 81.8244C53.1534 81.6814 52.8187 81.5384 52.646 81.4507C48.6287 79.4765 45.0746 76.5182 42.2882 72.9658C41.0258 71.3628 39.9335 69.5895 38.9699 67.7746C38.9435 67.7142 38.9048 67.6245 38.8584 67.5168C38.6726 67.0858 38.3627 66.3672 38.2224 66.0907C38.047 65.7451 37.6937 64.7959 37.5609 64.4077C37.5162 64.2353 37.4054 63.8903 37.2945 63.5454C37.1836 63.2004 37.0727 62.8554 37.028 62.683C36.9612 62.4459 36.8826 62.112 36.8041 61.7781C36.7256 61.4442 36.647 61.1102 36.5802 60.8732C36.513 60.5931 36.467 60.2918 36.421 59.9905C36.3751 59.6892 36.329 59.3876 36.2618 59.1076C36.238 58.8715 36.2026 58.539 36.1671 58.2063L36.1669 58.2039L36.1666 58.2011L36.1664 58.1997C36.131 57.8676 36.0957 57.536 36.0719 57.3003C36.017 56.94 36.0079 56.5649 35.9992 56.2019L35.9992 56.2007C35.9933 55.9568 35.9875 55.7185 35.968 55.4939C35.9655 55.236 35.9729 54.903 35.9804 54.57C35.9878 54.2369 35.9953 53.9037 35.9927 53.6457C36.0077 53.5334 36.0214 53.3008 36.0371 53.0357C36.0634 52.5918 36.0951 52.0566 36.1468 51.8419C36.3442 50.0814 36.7562 48.2801 37.2985 46.609C38.0067 44.3378 39.0602 42.1554 40.3303 40.1906C38.6023 43.6553 37.4364 47.5131 37.1308 51.3788L37.0508 51.9798L37.0134 52.5382L36.9819 53.6985L37.0364 54.8597C37.0441 55.6335 37.1377 56.4082 37.2314 57.1828C37.2791 57.6562 37.4161 58.4742 37.5064 58.905C37.5736 59.1851 37.6303 59.4758 37.6869 59.7665C37.7435 60.0572 37.8001 60.3479 37.8673 60.628L38.1364 61.7483C38.2683 62.0505 38.402 62.5247 38.4914 62.8694L38.8889 63.948C38.9553 64.1421 39.0766 64.455 39.198 64.7678C39.3193 65.0807 39.4406 65.3935 39.507 65.5876C40.429 67.5311 41.4795 69.4329 42.7428 71.1219C42.8464 71.2255 42.9603 71.3781 43.0793 71.5377C43.2097 71.7125 43.3464 71.8958 43.4826 72.0319L44.2224 72.942C44.4399 73.202 44.7223 73.5057 45.0047 73.8094C45.2871 74.1131 45.5695 74.4168 45.7871 74.6769C46.0471 74.8944 46.3508 75.1768 46.6545 75.4593C46.9582 75.7417 47.2619 76.0241 47.522 76.2416C47.5871 76.3067 47.8255 76.5025 48.0639 76.6983C48.3022 76.8941 48.5406 77.0899 48.6057 77.155C48.7785 77.2427 49.1684 77.5475 49.2987 77.6777C50.5977 78.6363 51.9377 79.3804 53.2776 80.1244C53.5798 80.2563 53.9578 80.4428 54.3358 80.6292C54.7137 80.8157 55.0917 81.0021 55.3939 81.1341L57.5511 81.9292C57.8533 82.0611 58.3709 82.2382 58.6722 82.2842L59.836 82.5966C60.3961 82.7311 60.9563 82.8656 61.559 82.9576C61.9897 83.0478 62.8078 83.1849 63.2811 83.2326L64.959 83.3782C65.2282 83.3808 65.5793 83.396 65.9147 83.4105L65.9166 83.4106L65.9182 83.4107C66.2244 83.4239 66.5172 83.4366 66.722 83.4386C67.0224 83.3986 68.2253 83.4106 68.4839 83.4131C72.2044 83.1397 75.8141 82.1999 79.154 80.6245C77.5157 80.9808 75.8597 81.2156 74.2007 81.3288Z" fill="url(#paint15_linear_2102_5968)"/>
<defs>
<linearGradient id="paint0_linear_2102_5968" x1="117.825" y1="34.4079" x2="58.8076" y2="93.693" gradientUnits="userSpaceOnUse">
<stop stop-color="white" stop-opacity="0.3"/>
<stop offset="0.493767" stop-color="white"/>
<stop offset="1" stop-color="white" stop-opacity="0.3"/>
</linearGradient>
<linearGradient id="paint1_linear_2102_5968" x1="117.825" y1="34.4079" x2="58.8076" y2="93.693" gradientUnits="userSpaceOnUse">
<stop stop-color="white" stop-opacity="0.3"/>
<stop offset="0.493767" stop-color="white"/>
<stop offset="1" stop-color="white" stop-opacity="0.3"/>
</linearGradient>
<linearGradient id="paint2_linear_2102_5968" x1="117.825" y1="34.4079" x2="58.8076" y2="93.693" gradientUnits="userSpaceOnUse">
<stop stop-color="white" stop-opacity="0.3"/>
<stop offset="0.493767" stop-color="white"/>
<stop offset="1" stop-color="white" stop-opacity="0.3"/>
</linearGradient>
<linearGradient id="paint3_linear_2102_5968" x1="117.825" y1="34.4079" x2="58.8076" y2="93.693" gradientUnits="userSpaceOnUse">
<stop stop-color="white" stop-opacity="0.3"/>
<stop offset="0.493767" stop-color="white"/>
<stop offset="1" stop-color="white" stop-opacity="0.3"/>
</linearGradient>
<linearGradient id="paint4_linear_2102_5968" x1="30.6671" y1="119.105" x2="98.8437" y2="54.5803" gradientUnits="userSpaceOnUse">
<stop stop-color="white" stop-opacity="0.3"/>
<stop offset="0.493767" stop-color="white"/>
<stop offset="1" stop-color="white" stop-opacity="0.3"/>
</linearGradient>
<linearGradient id="paint5_linear_2102_5968" x1="30.6671" y1="119.105" x2="98.8437" y2="54.5803" gradientUnits="userSpaceOnUse">
<stop stop-color="white" stop-opacity="0.3"/>
<stop offset="0.493767" stop-color="white"/>
<stop offset="1" stop-color="white" stop-opacity="0.3"/>
</linearGradient>
<linearGradient id="paint6_linear_2102_5968" x1="30.6671" y1="119.105" x2="98.8437" y2="54.5803" gradientUnits="userSpaceOnUse">
<stop stop-color="white" stop-opacity="0.3"/>
<stop offset="0.493767" stop-color="white"/>
<stop offset="1" stop-color="white" stop-opacity="0.3"/>
</linearGradient>
<linearGradient id="paint7_linear_2102_5968" x1="30.6671" y1="119.105" x2="98.8437" y2="54.5803" gradientUnits="userSpaceOnUse">
<stop stop-color="white" stop-opacity="0.3"/>
<stop offset="0.493767" stop-color="white"/>
<stop offset="1" stop-color="white" stop-opacity="0.3"/>
</linearGradient>
<linearGradient id="paint8_linear_2102_5968" x1="122.671" y1="113.591" x2="59.881" y2="51.0923" gradientUnits="userSpaceOnUse">
<stop stop-color="white" stop-opacity="0.3"/>
<stop offset="0.493767" stop-color="white"/>
<stop offset="1" stop-color="white" stop-opacity="0.3"/>
</linearGradient>
<linearGradient id="paint9_linear_2102_5968" x1="122.671" y1="113.591" x2="59.881" y2="51.0923" gradientUnits="userSpaceOnUse">
<stop stop-color="white" stop-opacity="0.3"/>
<stop offset="0.493767" stop-color="white"/>
<stop offset="1" stop-color="white" stop-opacity="0.3"/>
</linearGradient>
<linearGradient id="paint10_linear_2102_5968" x1="122.671" y1="113.591" x2="59.881" y2="51.0923" gradientUnits="userSpaceOnUse">
<stop stop-color="white" stop-opacity="0.3"/>
<stop offset="0.493767" stop-color="white"/>
<stop offset="1" stop-color="white" stop-opacity="0.3"/>
</linearGradient>
<linearGradient id="paint11_linear_2102_5968" x1="122.671" y1="113.591" x2="59.881" y2="51.0923" gradientUnits="userSpaceOnUse">
<stop stop-color="white" stop-opacity="0.3"/>
<stop offset="0.493767" stop-color="white"/>
<stop offset="1" stop-color="white" stop-opacity="0.3"/>
</linearGradient>
<linearGradient id="paint12_linear_2102_5968" x1="20.9396" y1="29.4451" x2="88.1853" y2="96.3797" gradientUnits="userSpaceOnUse">
<stop stop-color="white" stop-opacity="0.3"/>
<stop offset="0.493767" stop-color="white"/>
<stop offset="1" stop-color="white" stop-opacity="0.3"/>
</linearGradient>
<linearGradient id="paint13_linear_2102_5968" x1="20.9396" y1="29.4451" x2="88.1853" y2="96.3797" gradientUnits="userSpaceOnUse">
<stop stop-color="white" stop-opacity="0.3"/>
<stop offset="0.493767" stop-color="white"/>
<stop offset="1" stop-color="white" stop-opacity="0.3"/>
</linearGradient>
<linearGradient id="paint14_linear_2102_5968" x1="20.9396" y1="29.4451" x2="88.1853" y2="96.3797" gradientUnits="userSpaceOnUse">
<stop stop-color="white" stop-opacity="0.3"/>
<stop offset="0.493767" stop-color="white"/>
<stop offset="1" stop-color="white" stop-opacity="0.3"/>
</linearGradient>
<linearGradient id="paint15_linear_2102_5968" x1="20.9396" y1="29.4451" x2="88.1853" y2="96.3797" gradientUnits="userSpaceOnUse">
<stop stop-color="white" stop-opacity="0.3"/>
<stop offset="0.493767" stop-color="white"/>
<stop offset="1" stop-color="white" stop-opacity="0.3"/>
</linearGradient>
</defs>
</svg>
