<svg width="30" height="30" viewBox="0 0 30 30" fill="none" xmlns="http://www.w3.org/2000/svg">
<path d="M15.0569 17.8161C11.419 19.7421 6.93418 19.082 4.04098 16.1613C0.265845 12.3255 0.581905 6.14283 4.69066 2.69243C7.27179 0.538115 10.9065 -0.0398725 14.0319 1.16864C14.4065 1.32044 14.7752 1.48973 15.1381 1.67656C14.8104 1.51309 14.4708 1.37299 14.1197 1.25623C11.6614 0.380492 8.83447 0.730786 6.63963 2.14948C2.74158 4.63657 1.40712 9.69833 3.47905 13.7968C5.60733 18.0427 10.7514 19.92 15.054 17.8143C15.055 17.8149 15.056 17.8155 15.0569 17.8161Z" fill="url(#paint0_linear_1187_55)"/>
<path d="M15.0622 17.8192C12.9851 19.0779 10.3862 19.4466 8.04437 18.841C4.95403 18.0879 2.3729 15.6533 1.40716 12.6408C-0.296035 7.36886 2.89966 1.74663 8.34288 0.555629C8.93987 0.415511 9.55443 0.345452 10.169 0.327937C10.1738 0.32784 10.1786 0.327748 10.1834 0.327659C10.1228 0.326636 10.0621 0.326122 10.0013 0.326122C4.47778 0.326122 0 4.55996 0 9.78267C0 15.0054 4.47778 19.2392 10.0013 19.2392C11.8921 19.2392 13.6606 18.743 15.1686 17.8808C15.133 17.8605 15.0975 17.8399 15.0622 17.8192Z" fill="url(#paint1_linear_1187_55)"/>
<path d="M14.9367 1.55591C15.0147 1.59781 15.092 1.64067 15.1686 1.68448C15.0386 1.75882 14.9105 1.83587 14.7844 1.91557C14.9003 1.83338 15.0183 1.75368 15.1381 1.67656C15.0716 1.63545 15.0044 1.59523 14.9367 1.55591Z" fill="url(#paint2_linear_1187_55)"/>
<path d="M13.639 16.8063C12.1806 15.6355 11.0829 13.991 10.5904 12.1854C9.43152 8.12198 11.3279 3.58566 15.1381 1.67656C12.7853 0.660702 10.0285 0.748302 7.76339 1.90427C3.09276 4.26876 1.53003 10.1712 4.37455 14.5324C6.67448 18.0605 11.1703 19.4329 15.0481 17.8109C15.0463 17.8098 15.0445 17.8087 15.0427 17.8077C11.4687 19.0957 7.55202 17.6569 5.48098 14.4973C3.39149 11.3272 3.61975 7.05356 6.07797 4.14611C7.30709 2.67487 9.08053 1.62399 10.9769 1.30872C12.364 1.06352 13.8388 1.18614 15.1381 1.67656C13.5578 1.20366 11.8724 1.23866 10.3096 1.71156C9.39658 2.00931 8.51865 2.4647 7.76362 3.04268C2.95252 6.79084 3.58463 14.3222 8.97517 17.1946C10.8222 18.1588 13.0255 18.3783 15.0347 17.803C15.0314 17.801 15.028 17.799 15.0247 17.797C12.2334 18.3743 9.37154 17.305 7.55252 15.1104C5.28744 12.4131 4.97138 8.47228 6.77993 5.44223C6.92041 5.21454 7.11356 4.91679 7.27159 4.70662C7.44718 4.46141 7.64032 4.23372 7.85103 4.00603C7.89923 3.94592 7.9888 3.86106 8.06862 3.78542C8.10509 3.75087 8.13955 3.71822 8.16708 3.69076C8.21975 3.63822 8.29437 3.57255 8.36899 3.50687C8.44361 3.44119 8.51825 3.3755 8.57093 3.32295C8.60015 3.29963 8.63132 3.27437 8.66249 3.24911C8.72492 3.19851 8.78749 3.1478 8.83431 3.11277L9.02746 2.97266L9.11526 2.9026C9.3084 2.76248 9.55422 2.60485 9.76492 2.48224C11.3803 1.58899 13.3471 1.27372 15.1381 1.67656C13.3296 1.43135 11.4681 1.79917 9.92296 2.74496C9.72981 2.86757 9.50155 3.0252 9.3084 3.16532C9.25572 3.20035 9.0977 3.32295 9.04502 3.37549C8.95723 3.44555 8.81676 3.56816 8.72896 3.65573C5.11186 6.93099 5.18209 12.7634 8.88699 15.9511C10.5408 17.3946 12.8203 18.0625 15.0119 17.7894C15.0044 17.7849 14.9968 17.7804 14.9893 17.7759C11.7839 17.8156 8.93945 15.8002 7.76362 12.8335C6.55206 9.85596 7.20173 6.28296 9.48437 3.98853C10.2043 3.23539 11.0998 2.62238 12.0831 2.23705C13.0488 1.85173 14.1022 1.64153 15.1381 1.67656C10.8889 1.88673 7.57046 5.52982 7.60558 9.73336C7.58826 13.9152 10.767 17.4663 14.9668 17.7624C14.9434 17.7483 14.9201 17.7341 14.8968 17.7198C13.5123 17.3935 12.2172 16.6827 11.2047 15.7059C11.1257 15.6271 11.0467 15.5395 10.9677 15.4519C10.8887 15.3643 10.8097 15.2768 10.7307 15.1979C10.702 15.1636 10.6658 15.118 10.6269 15.0692L10.6267 15.0689C10.5469 14.9684 10.4561 14.854 10.397 14.7951C10.3464 14.7041 10.284 14.619 10.2234 14.5363C10.1791 14.4757 10.1357 14.4165 10.0985 14.3572C10.0634 14.3047 10.0108 14.2216 9.95813 14.1384C9.90545 14.0552 9.85272 13.9719 9.81761 13.9194C9.79127 13.8668 9.74298 13.7749 9.69469 13.6829C9.64641 13.591 9.59812 13.499 9.57178 13.4465C9.54544 13.3939 9.50593 13.302 9.46643 13.21C9.42692 13.1181 9.38741 13.0261 9.36107 12.9736C9.34351 12.921 9.30401 12.8247 9.2645 12.7284C9.22501 12.6321 9.18548 12.5357 9.16793 12.4832C8.74652 11.2746 8.62361 9.96104 8.78164 8.68247C8.85187 8.10448 8.99234 7.52649 9.16793 6.96602C9.17495 6.94852 9.18547 6.92262 9.1981 6.89155C9.24867 6.76713 9.33298 6.55968 9.36107 6.47561C9.39619 6.37052 9.5191 6.1078 9.57178 6.00271C9.59812 5.95892 9.64641 5.86697 9.69469 5.77502C9.74298 5.68307 9.79127 5.59111 9.81761 5.54733C9.85272 5.48603 9.9054 5.40283 9.95807 5.31964C10.0107 5.23644 10.0634 5.15325 10.0985 5.09194C10.1424 5.02189 10.1951 4.95185 10.2478 4.8818C10.3004 4.81175 10.3532 4.74164 10.397 4.67159C10.4408 4.61917 10.5021 4.54495 10.5634 4.47069L10.5638 4.47017L10.5644 4.46955L10.5646 4.46922C10.6258 4.3951 10.6869 4.32107 10.7307 4.26875C10.7936 4.185 10.8692 4.1075 10.9422 4.03252L10.9425 4.03227C10.9915 3.9819 11.0395 3.93266 11.0818 3.88343C11.1345 3.83089 11.2047 3.76523 11.2749 3.69956C11.3452 3.63388 11.4154 3.56816 11.4681 3.51562C11.4944 3.49597 11.5452 3.45184 11.6031 3.40153C11.7001 3.3173 11.817 3.21573 11.872 3.18284C12.2758 2.86757 12.7324 2.58734 13.1889 2.35965C13.8034 2.04438 14.4709 1.81668 15.1381 1.67656C14.067 2.02685 13.0309 2.56982 12.1705 3.28793L12.03 3.39301L11.9071 3.4981L11.6613 3.72579L11.433 3.971C11.275 4.12863 11.1345 4.30378 10.994 4.47893C10.9062 4.58402 10.7658 4.77668 10.6955 4.88177C10.6516 4.95183 10.6034 5.02189 10.5551 5.09195C10.5068 5.16201 10.4585 5.23206 10.4146 5.30212L10.239 5.58236C10.2039 5.66993 10.1337 5.79253 10.081 5.88011L9.94051 6.17786C9.91417 6.2304 9.87467 6.31798 9.83516 6.40555C9.79566 6.49312 9.75615 6.5807 9.72981 6.63324C9.51911 7.21123 9.34352 7.80673 9.25572 8.40223C9.25572 8.44402 9.24773 8.49778 9.23936 8.55398C9.2302 8.61555 9.2206 8.68008 9.2206 8.73501L9.18548 9.06779C9.17671 9.16412 9.17231 9.28234 9.16792 9.40057C9.16353 9.51879 9.15914 9.63702 9.15036 9.73335C9.15914 9.82968 9.16353 9.9479 9.16792 10.0661C9.17231 10.1844 9.17671 10.3026 9.18548 10.3989C9.18548 10.4252 9.19427 10.5128 9.20304 10.6003C9.21182 10.6879 9.2206 10.7755 9.2206 10.8017C9.23816 10.8543 9.25572 10.9944 9.25572 11.047C9.32596 11.5023 9.44887 11.9227 9.57178 12.343C9.6069 12.4306 9.6464 12.5445 9.68591 12.6583C9.72542 12.7722 9.76492 12.886 9.80004 12.9736L10.081 13.5691C10.1161 13.6566 10.1863 13.7968 10.239 13.8668L10.4146 14.1646C10.5024 14.3047 10.5902 14.4448 10.6955 14.5849C10.7658 14.69 10.9062 14.8827 10.994 14.9878L11.3101 15.3556C11.3651 15.4104 11.4344 15.4843 11.5006 15.5549L11.5009 15.5553L11.5012 15.5556C11.5617 15.62 11.6194 15.6817 11.6613 15.7234C11.7315 15.7759 11.9771 16.0209 12.0299 16.0736C12.8537 16.7689 13.7921 17.3075 14.806 17.6634C14.3946 17.4048 14.0046 17.1181 13.639 16.8063Z" fill="url(#paint3_linear_1187_55)"/>
<path d="M14.9431 12.184C18.581 10.258 23.0658 10.9181 25.959 13.8388C29.7342 17.6745 29.4181 23.8572 25.3093 27.3076C22.7282 29.462 19.0935 30.0399 15.9681 28.8314C15.5935 28.6796 15.2248 28.5103 14.8619 28.3235C15.1896 28.487 15.5292 28.6271 15.8803 28.7438C18.3386 29.6196 21.1655 29.2693 23.3604 27.8506C27.2584 25.3635 28.5929 20.3017 26.5209 16.2033C24.3927 11.9574 19.2486 10.0801 14.946 12.1857C14.945 12.1852 14.944 12.1846 14.9431 12.184Z" fill="url(#paint4_linear_1187_55)"/>
<path d="M14.9378 12.1809C17.0149 10.9222 19.6138 10.5534 21.9556 11.1591C25.046 11.9122 27.6271 14.3467 28.5928 17.3593C30.296 22.6312 27.1003 28.2534 21.6571 29.4444C21.0601 29.5846 20.4456 29.6546 19.831 29.6721C19.8262 29.6722 19.8214 29.6723 19.8166 29.6724C19.8772 29.6734 19.9379 29.674 19.9987 29.674C25.5222 29.674 30 25.4401 30 20.2174C30 14.9947 25.5222 10.7609 19.9987 10.7609C18.1079 10.7609 16.3394 11.257 14.8314 12.1192C14.867 12.1396 14.9025 12.1601 14.9378 12.1809Z" fill="url(#paint5_linear_1187_55)"/>
<path d="M15.0633 28.4442C14.9853 28.4023 14.908 28.3594 14.8314 28.3156C14.9614 28.2413 15.0895 28.1642 15.2156 28.0845C15.0997 28.1667 14.9817 28.2464 14.8619 28.3235C14.9284 28.3646 14.9956 28.4048 15.0633 28.4442Z" fill="url(#paint6_linear_1187_55)"/>
<path d="M16.361 13.1938C17.8194 14.3645 18.9171 16.0091 19.4096 17.8147C20.5685 21.8781 18.6721 26.4144 14.8619 28.3235C17.2147 29.3394 19.9715 29.2518 22.2366 28.0958C26.9072 25.7313 28.47 19.8288 25.6254 15.4677C23.3255 11.9395 18.8297 10.5672 14.9519 12.1892C14.9537 12.1903 14.9555 12.1913 14.9573 12.1924C18.5313 10.9043 22.448 12.3432 24.519 15.5028C26.6085 18.6729 26.3803 22.9465 23.922 25.854C22.6929 27.3252 20.9195 28.3761 19.0231 28.6914C17.636 28.9366 16.1612 28.8139 14.8619 28.3235C16.4422 28.7964 18.1276 28.7614 19.6904 28.2885C20.6034 27.9908 21.4814 27.5354 22.2364 26.9574C27.0475 23.2092 26.4154 15.6779 21.0248 12.8055C19.1778 11.8412 16.9745 11.6218 14.9653 12.1971C14.9686 12.1991 14.972 12.2011 14.9753 12.2031C17.7666 11.6257 20.6285 12.6951 22.4475 14.8897C24.7126 17.587 25.0286 21.5278 23.2201 24.5578C23.0796 24.7855 22.8864 25.0833 22.7284 25.2935C22.5528 25.5387 22.3597 25.7664 22.149 25.994C22.1008 26.0542 22.0112 26.139 21.9314 26.2147C21.8949 26.2492 21.8604 26.2819 21.8329 26.3093C21.7802 26.3619 21.7056 26.4275 21.631 26.4932C21.5564 26.5589 21.4817 26.6246 21.4291 26.6771C21.3998 26.7004 21.3687 26.7257 21.3375 26.751C21.2751 26.8016 21.2125 26.8523 21.1657 26.8873L20.9725 27.0274L20.8847 27.0975C20.6916 27.2376 20.4458 27.3952 20.2351 27.5178C18.6197 28.4111 16.6529 28.7264 14.8619 28.3235C16.6704 28.5687 18.5319 28.2009 20.077 27.2551C20.2702 27.1325 20.4985 26.9749 20.6916 26.8348C20.7443 26.7997 20.9023 26.6771 20.955 26.6246C21.0428 26.5545 21.1832 26.4319 21.271 26.3443C24.8881 23.0691 24.8179 17.2367 21.113 14.049C19.4592 12.6055 17.1797 11.9376 14.9881 12.2107C14.9956 12.2152 15.0032 12.2197 15.0107 12.2242C18.2161 12.1844 21.0606 14.1999 22.2364 17.1666C23.4479 20.1441 22.7983 23.7171 20.5156 26.0115C19.7957 26.7647 18.9002 27.3777 17.9169 27.763C16.9512 28.1483 15.8978 28.3585 14.8619 28.3235C19.1111 28.1133 22.4295 24.4702 22.3944 20.2667C22.4117 16.0848 19.233 12.5338 15.0332 12.2377C15.0566 12.2518 15.0799 12.266 15.1032 12.2803C16.4877 12.6066 17.7828 13.3174 18.7953 14.2942C18.8743 14.373 18.9533 14.4606 19.0323 14.5482C19.1113 14.6357 19.1903 14.7233 19.2693 14.8021C19.298 14.8365 19.3342 14.8821 19.3731 14.9309L19.3733 14.9312C19.4531 15.0317 19.5439 15.1461 19.603 15.205C19.6536 15.296 19.716 15.3811 19.7766 15.4638C19.8209 15.5244 19.8643 15.5836 19.9015 15.6428C19.9366 15.6954 19.9892 15.7785 20.0419 15.8617C20.0946 15.9449 20.1473 16.0282 20.1824 16.0807C20.2087 16.1332 20.257 16.2252 20.3053 16.3172C20.3536 16.4091 20.4019 16.5011 20.4282 16.5536C20.4546 16.6061 20.4941 16.6981 20.5336 16.79C20.5731 16.882 20.6126 16.974 20.6389 17.0265C20.6565 17.079 20.696 17.1754 20.7355 17.2717C20.775 17.368 20.8145 17.4644 20.8321 17.5169C21.2535 18.7254 21.3764 20.039 21.2184 21.3176C21.1481 21.8956 21.0077 22.4736 20.8321 23.0341C20.8251 23.0516 20.8145 23.0775 20.8019 23.1085C20.7513 23.2329 20.667 23.4404 20.6389 23.5245C20.6038 23.6296 20.4809 23.8923 20.4282 23.9974C20.4019 24.0412 20.3536 24.1331 20.3053 24.2251C20.257 24.317 20.2087 24.409 20.1824 24.4527C20.1473 24.514 20.0946 24.5972 20.0419 24.6804C19.9893 24.7636 19.9366 24.8468 19.9015 24.9081C19.8576 24.9782 19.8049 25.0482 19.7522 25.1183C19.6996 25.1883 19.6468 25.2584 19.603 25.3285C19.5592 25.3809 19.4979 25.4551 19.4366 25.5294L19.4362 25.5299L19.4356 25.5305L19.4354 25.5308C19.3742 25.605 19.3131 25.679 19.2693 25.7313C19.2064 25.8151 19.1308 25.8926 19.0578 25.9676L19.0575 25.9678C19.0085 26.0182 18.9605 26.0674 18.9182 26.1166C18.8655 26.1692 18.7953 26.2348 18.7251 26.3005C18.6548 26.3662 18.5846 26.4319 18.5319 26.4845C18.5056 26.5041 18.4548 26.5482 18.3969 26.5985C18.2999 26.6828 18.183 26.7843 18.128 26.8172C17.7242 27.1325 17.2676 27.4127 16.8111 27.6404C16.1966 27.9557 15.5291 28.1834 14.8619 28.3235C15.933 27.9732 16.9691 27.4303 17.8295 26.7121L17.97 26.6071L18.0929 26.502L18.3387 26.2743L18.567 26.0291C18.725 25.8714 18.8655 25.6963 19.006 25.5211C19.0938 25.4161 19.2342 25.2234 19.3045 25.1183C19.3484 25.0482 19.3966 24.9782 19.4449 24.9081C19.4932 24.8381 19.5415 24.768 19.5854 24.698L19.761 24.4177C19.7961 24.3301 19.8663 24.2075 19.919 24.12L20.0595 23.8222C20.0858 23.7697 20.1253 23.6821 20.1648 23.5945C20.2043 23.507 20.2438 23.4194 20.2702 23.3668C20.4809 22.7888 20.6565 22.1933 20.7443 21.5978C20.7443 21.5561 20.7523 21.5023 20.7606 21.4461C20.7698 21.3845 20.7794 21.32 20.7794 21.2651L20.8145 20.9323C20.8233 20.836 20.8277 20.7177 20.8321 20.5995C20.8365 20.4813 20.8409 20.3631 20.8496 20.2667C20.8409 20.1704 20.8365 20.0522 20.8321 19.9339C20.8277 19.8157 20.8233 19.6975 20.8145 19.6012C20.8145 19.5749 20.8057 19.4873 20.797 19.3997C20.7882 19.3122 20.7794 19.2246 20.7794 19.1983C20.7618 19.1458 20.7443 19.0057 20.7443 18.9531C20.674 18.4977 20.5511 18.0774 20.4282 17.657C20.3931 17.5695 20.3536 17.4556 20.3141 17.3418C20.2746 17.2279 20.2351 17.1141 20.2 17.0265L19.919 16.431C19.8839 16.3434 19.8137 16.2033 19.761 16.1332L19.5854 15.8355C19.4976 15.6954 19.4098 15.5553 19.3045 15.4151C19.2342 15.3101 19.0938 15.1174 19.006 15.0123L18.6899 14.6445C18.6349 14.5897 18.5656 14.5158 18.4994 14.4452L18.4991 14.4448L18.4988 14.4445C18.4383 14.38 18.3806 14.3184 18.3387 14.2767C18.2685 14.2242 18.0229 13.9791 17.9701 13.9265C17.1463 13.2311 16.2079 12.6926 15.194 12.3367C15.6054 12.5953 15.9954 12.882 16.361 13.1938Z" fill="url(#paint7_linear_1187_55)"/>
<path d="M12.3135 14.8896C10.3659 11.2921 11.0334 6.85713 13.9869 3.99608C17.8658 0.262891 24.1179 0.575439 27.6071 4.63854C29.7856 7.19099 30.3701 10.7853 29.148 13.876C28.9945 14.2464 28.8233 14.6111 28.6344 14.9699C28.7997 14.6458 28.9414 14.3101 29.0594 13.9628C29.945 11.5319 29.5908 8.73631 28.1562 6.56585C25.6411 2.71112 20.5225 1.39148 16.378 3.44039C12.0844 5.54502 10.1859 10.6319 12.3153 14.8867C12.3147 14.8877 12.3141 14.8887 12.3135 14.8896Z" fill="url(#paint8_linear_1187_55)"/>
<path d="M12.3104 14.8948C11.0376 12.8408 10.6647 10.2708 11.2771 7.95499C12.0387 4.89899 14.5006 2.34653 17.547 1.39153C22.8781 -0.292746 28.5635 2.86744 29.7679 8.25018C29.9096 8.84054 29.9805 9.44827 29.9982 10.056C29.9983 10.0607 29.9984 10.0655 29.9984 10.0702C29.9995 10.0103 30 9.95029 30 9.89013C30 4.42802 25.7186 -1.85067e-07 20.4372 -4.13359e-07C15.1558 -6.4165e-07 10.8744 4.42802 10.8744 9.89013C10.8744 11.76 11.3762 13.5088 12.248 15C12.2686 14.9648 12.2894 14.9297 12.3104 14.8948Z" fill="url(#paint9_linear_1187_55)"/>
<path d="M28.7564 14.7707C28.714 14.8478 28.6707 14.9243 28.6264 15C28.5512 14.8715 28.4733 14.7448 28.3927 14.6201C28.4758 14.7348 28.5564 14.8514 28.6344 14.9699C28.676 14.9041 28.7166 14.8377 28.7564 14.7707Z" fill="url(#paint10_linear_1187_55)"/>
<path d="M13.3346 13.4875C14.5186 12.0453 16.1816 10.9597 18.0075 10.4727C22.1165 9.32673 26.7038 11.202 28.6344 14.9699C29.6617 12.6432 29.5731 9.91704 28.4041 7.67713C26.0131 3.0584 20.0443 1.51303 15.6341 4.32595C12.0663 6.60032 10.6786 11.0461 12.3188 14.8809C12.3199 14.8791 12.3209 14.8773 12.322 14.8755C11.0195 11.3412 12.4745 7.46811 15.6696 5.42008C18.8754 3.3538 23.197 3.57953 26.1371 6.01044C27.6249 7.2259 28.6876 8.97963 29.0064 10.8549C29.2543 12.2266 29.1303 13.685 28.6344 14.9699C29.1126 13.4072 29.0772 11.7405 28.599 10.1951C28.2979 9.29218 27.8374 8.42399 27.2529 7.67736C23.4626 2.91971 15.8467 3.5448 12.942 8.87544C11.9669 10.702 11.745 12.8808 12.3268 14.8677C12.3288 14.8643 12.3308 14.861 12.3328 14.8577C11.749 12.0975 12.8304 9.26741 15.0496 7.46861C17.7772 5.22869 21.7623 4.91614 24.8264 6.7046C25.0567 6.84351 25.3577 7.03452 25.5703 7.19079C25.8182 7.36443 26.0485 7.55543 26.2787 7.76379C26.3395 7.81146 26.4253 7.90003 26.5018 7.97897C26.5368 8.01503 26.5698 8.04911 26.5976 8.07633C26.6507 8.12842 26.7171 8.20221 26.7835 8.276C26.8499 8.34979 26.9164 8.42361 26.9695 8.4757C26.9931 8.50459 27.0186 8.53542 27.0442 8.56624C27.0953 8.62798 27.1466 8.68985 27.182 8.73615L27.3237 8.92716L27.3946 9.01398C27.5363 9.20498 27.6957 9.44806 27.8197 9.65642C28.7229 11.2539 29.0418 13.1988 28.6344 14.9699C28.8824 13.1815 28.5104 11.3407 27.554 9.8127C27.43 9.6217 27.2706 9.39597 27.1289 9.20497C27.0935 9.15288 26.9695 8.99661 26.9164 8.94452C26.8455 8.8577 26.7215 8.71879 26.633 8.63197C23.3209 5.05506 17.423 5.12451 14.1995 8.78824C12.7398 10.4237 12.0644 12.6779 12.3405 14.8451C12.345 14.8376 12.3496 14.8302 12.3541 14.8228C12.314 11.653 14.3521 8.84012 17.3521 7.67735C20.3631 6.47926 23.9762 7.12171 26.2964 9.37899C27.058 10.0909 27.6779 10.9764 28.0676 11.9488C28.4573 12.9038 28.6698 13.9455 28.6344 14.9699C28.4219 10.7679 24.7378 7.48635 20.4871 7.52107C16.2582 7.50394 12.6673 10.6474 12.3678 14.8005C12.3821 14.7773 12.3964 14.7543 12.4109 14.7313C12.7409 13.3622 13.4596 12.0815 14.4474 11.0802C14.5271 11.0021 14.6157 10.924 14.7043 10.8458C14.7928 10.7677 14.8814 10.6896 14.9611 10.6114C14.9958 10.583 15.0419 10.5472 15.0913 10.5089L15.0916 10.5086C15.1932 10.4297 15.3089 10.3399 15.3684 10.2815C15.4605 10.2314 15.5466 10.1697 15.6302 10.1098C15.6914 10.066 15.7513 10.023 15.8112 9.98633C15.8643 9.95162 15.9484 9.89955 16.0325 9.84748C16.1167 9.79539 16.2009 9.74325 16.254 9.70852C16.3071 9.68247 16.4001 9.63472 16.4931 9.58697C16.5861 9.53922 16.6791 9.49147 16.7322 9.46542C16.7854 9.43938 16.8783 9.40031 16.9713 9.36124C17.0643 9.32217 17.1573 9.2831 17.2104 9.25706C17.2636 9.23969 17.361 9.20063 17.4584 9.16156C17.5558 9.1225 17.6532 9.08342 17.7064 9.06606C18.9285 8.64933 20.2568 8.52779 21.5498 8.68406C22.1342 8.75351 22.7187 8.89243 23.2855 9.06606C23.3032 9.073 23.3294 9.08341 23.3608 9.0959C23.4866 9.14591 23.6964 9.22928 23.7814 9.25706C23.8877 9.29179 24.1534 9.41333 24.2596 9.46543C24.3039 9.49147 24.3969 9.53922 24.4899 9.58697C24.5829 9.63472 24.6759 9.68247 24.7201 9.70852C24.7821 9.74325 24.8662 9.79534 24.9504 9.84743C25.0345 9.89952 25.1186 9.95161 25.1806 9.98633C25.2515 10.0297 25.3223 10.0818 25.3931 10.1339C25.464 10.186 25.5349 10.2381 25.6057 10.2815C25.6587 10.3248 25.7338 10.3854 25.8089 10.446L25.8094 10.4465L25.81 10.447L25.8103 10.4472C25.8853 10.5078 25.9602 10.5682 26.0131 10.6114C26.0978 10.6737 26.1761 10.7484 26.252 10.8206L26.2522 10.8209C26.3031 10.8694 26.3529 10.9169 26.4027 10.9587C26.4558 11.0108 26.5222 11.0802 26.5887 11.1497C26.6551 11.2191 26.7215 11.2886 26.7747 11.3407C26.7945 11.3667 26.8392 11.4169 26.89 11.4742C26.9752 11.5701 27.0779 11.6857 27.1112 11.7401C27.43 12.1394 27.7134 12.5909 27.9436 13.0423C28.2624 13.6501 28.4927 14.3101 28.6344 14.9699C28.2802 13.9107 27.7311 12.8861 27.0049 12.0352L26.8986 11.8963L26.7924 11.7748L26.5621 11.5317L26.3142 11.306C26.1548 11.1497 25.9776 11.0108 25.8005 10.8719C25.6943 10.7851 25.4994 10.6462 25.3932 10.5767C25.3223 10.5333 25.2515 10.4855 25.1806 10.4378C25.1098 10.39 25.0389 10.3423 24.9681 10.2989L24.6847 10.1252C24.5961 10.0905 24.4722 10.0211 24.3836 9.96898L24.0825 9.83006C24.0294 9.80401 23.9408 9.76495 23.8523 9.72588C23.7637 9.68681 23.6751 9.64775 23.622 9.6217C23.0375 9.41334 22.4353 9.2397 21.8331 9.15288C21.7909 9.15288 21.7365 9.14497 21.6797 9.1367C21.6174 9.12765 21.5522 9.11815 21.4966 9.11815L21.1601 9.08342C21.0627 9.07474 20.9431 9.0704 20.8236 9.06606C20.704 9.06172 20.5845 9.05737 20.4871 9.04869C20.3897 9.05737 20.2701 9.06172 20.1506 9.06606C20.031 9.0704 19.9114 9.07474 19.814 9.08342C19.7875 9.08342 19.6989 9.09211 19.6103 9.10079C19.5218 9.10947 19.4332 9.11815 19.4067 9.11815C19.3535 9.13552 19.2118 9.15288 19.1587 9.15288C18.6982 9.22234 18.2731 9.34388 17.8481 9.46542C17.7595 9.50015 17.6444 9.53922 17.5292 9.57829C17.4141 9.61736 17.299 9.65642 17.2104 9.69115L16.6082 9.96898C16.5197 10.0037 16.378 10.0732 16.3071 10.1252L16.0061 10.2989C15.8644 10.3857 15.7227 10.4725 15.581 10.5767C15.4747 10.6462 15.2799 10.7851 15.1736 10.8719L14.8017 11.1844C14.7462 11.2388 14.6715 11.3073 14.6001 11.3728L14.5997 11.3731L14.5994 11.3734C14.5342 11.4332 14.4719 11.4903 14.4297 11.5317C14.3766 11.6011 14.1288 11.844 14.0756 11.8963C13.3724 12.7109 12.8278 13.6389 12.4679 14.6415C12.7295 14.2346 13.0193 13.849 13.3346 13.4875Z" fill="url(#paint11_linear_1187_55)"/>
<path d="M17.6865 15.1104C19.6341 18.708 18.9666 23.1429 16.0131 26.004C12.1342 29.7372 5.88207 29.4246 2.39289 25.3615C0.214375 22.8091 -0.370107 19.2148 0.851989 16.1241C1.00549 15.7536 1.17669 15.389 1.36561 15.0301C1.2003 15.3543 1.05863 15.69 0.940557 16.0373C0.0549806 18.4682 0.409211 21.2638 1.84385 23.4342C4.35888 27.289 9.47752 28.6086 13.622 26.5597C17.9156 24.455 19.8141 19.3681 17.6847 15.1134C17.6853 15.1124 17.6859 15.1114 17.6865 15.1104Z" fill="url(#paint12_linear_1187_55)"/>
<path d="M17.6896 15.1053C18.9624 17.1593 19.3353 19.7293 18.7229 22.0451C17.9613 25.1011 15.4994 27.6535 12.453 28.6085C7.12187 30.2928 1.43647 27.1326 0.232085 21.7499C0.0903931 21.1595 0.0195471 20.5518 0.00183563 19.9441C0.00173791 19.9393 0.00164409 19.9346 0.00155418 19.9298C0.000519813 19.9897 4.34941e-07 20.0498 4.32311e-07 20.1099C1.93555e-07 25.572 4.28141 30.0001 9.5628 30.0001C14.8442 30.0001 19.1256 25.572 19.1256 20.1099C19.1256 18.2401 18.6238 16.4913 17.752 15C17.7314 15.0353 17.7106 15.0703 17.6896 15.1053Z" fill="url(#paint13_linear_1187_55)"/>
<path d="M1.24361 15.2293C1.28598 15.1522 1.32932 15.0758 1.37362 15C1.44879 15.1286 1.52672 15.2553 1.60731 15.38C1.5242 15.2653 1.4436 15.1487 1.36561 15.0301C1.32404 15.096 1.28337 15.1624 1.24361 15.2293Z" fill="url(#paint14_linear_1187_55)"/>
<path d="M16.6654 16.5126C15.4814 17.9548 13.8184 19.0404 11.9925 19.5273C7.88345 20.6733 3.29617 18.7981 1.36561 15.0301C0.33834 17.3569 0.426924 20.083 1.59588 22.3229C3.98694 26.9417 9.95573 28.487 14.3659 25.6741C17.9337 23.3997 19.3214 18.9539 17.6812 15.1192C17.6801 15.121 17.6791 15.1227 17.678 15.1245C18.9805 18.6589 17.5255 22.532 14.3304 24.58C11.1246 26.6463 6.80302 26.4205 3.86291 23.9896C2.37514 22.7742 1.31245 21.0204 0.993642 19.1452C0.745681 17.7734 0.869686 16.3151 1.36561 15.0301C0.887398 16.5929 0.922795 18.2596 1.40101 19.805C1.7021 20.7079 2.1626 21.5761 2.74708 22.3227C6.53735 27.0804 14.1533 26.4553 17.058 21.1246C18.0331 19.2981 18.255 17.1193 17.6732 15.1324C17.6712 15.1357 17.6692 15.139 17.6672 15.1424C18.251 17.9026 17.1696 20.7327 14.9504 22.5315C12.2228 24.7714 8.23769 25.0839 5.1736 23.2955C4.94335 23.1566 4.64225 22.9656 4.42971 22.8093C4.18175 22.6356 3.9515 22.4446 3.72125 22.2363C3.66047 22.1886 3.57465 22.1 3.49817 22.0211C3.46323 21.985 3.43021 21.951 3.40244 21.9237C3.34931 21.8716 3.2829 21.7979 3.21649 21.7241C3.15007 21.6503 3.08364 21.5765 3.0305 21.5244C3.00692 21.4955 2.98138 21.4647 2.95583 21.4338C2.90467 21.3721 2.85338 21.3102 2.81796 21.2639L2.67627 21.0729L2.60542 20.9861C2.46373 20.7951 2.30433 20.552 2.18035 20.3436C1.27706 18.7462 0.958244 16.8012 1.36561 15.0301C1.11765 16.8186 1.4896 18.6594 2.44602 20.1874C2.57 20.3784 2.72941 20.6041 2.8711 20.7951C2.90652 20.8472 3.0305 21.0035 3.08364 21.0556C3.15448 21.1424 3.27846 21.2813 3.36702 21.3681C6.67908 24.945 12.577 24.8756 15.8005 21.2118C17.2602 19.5764 17.9356 17.3222 17.6595 15.155C17.655 15.1624 17.6504 15.1699 17.6459 15.1773C17.686 18.3471 15.6479 21.16 12.6479 22.3227C9.63692 23.5208 6.02377 22.8784 3.70356 20.6211C2.94196 19.9092 2.32206 19.0236 1.9324 18.0513C1.54275 17.0963 1.33019 16.0546 1.36561 15.0301C1.57815 19.2322 5.26217 22.5137 9.51294 22.479C13.7418 22.4961 17.3327 19.3527 17.6322 15.1996C17.6179 15.2227 17.6036 15.2458 17.5891 15.2688C17.2591 16.6379 16.5404 17.9186 15.5526 18.9198C15.4729 18.998 15.3843 19.0761 15.2957 19.1542C15.2072 19.2324 15.1186 19.3105 15.0389 19.3886C15.0042 19.417 14.9581 19.4528 14.9087 19.4912L14.9084 19.4914C14.8068 19.5704 14.6911 19.6602 14.6316 19.7186C14.5395 19.7687 14.4534 19.8303 14.3698 19.8902C14.3086 19.9341 14.2487 19.977 14.1888 20.0137C14.1357 20.0485 14.0516 20.1005 13.9675 20.1526C13.8833 20.2047 13.7991 20.2568 13.746 20.2916C13.6929 20.3176 13.5999 20.3653 13.5069 20.4131C13.4139 20.4608 13.3209 20.5086 13.2678 20.5346C13.2146 20.5607 13.1217 20.5998 13.0287 20.6388C12.9357 20.6779 12.8427 20.717 12.7896 20.743C12.7364 20.7604 12.639 20.7994 12.5416 20.8385C12.4442 20.8776 12.3468 20.9166 12.2936 20.934C11.0715 21.3507 9.74318 21.4723 8.45024 21.316C7.86576 21.2466 7.28127 21.1076 6.71451 20.934C6.69681 20.9271 6.67062 20.9167 6.63919 20.9042C6.51338 20.8542 6.3036 20.7708 6.21858 20.743C6.11231 20.7083 5.84664 20.5867 5.74037 20.5346C5.69609 20.5086 5.60311 20.4608 5.51012 20.4131C5.41714 20.3653 5.32415 20.3176 5.27987 20.2915C5.21788 20.2568 5.13375 20.2047 5.04962 20.1526C4.96549 20.1006 4.88136 20.0485 4.81937 20.0137C4.74854 19.9703 4.6777 19.9182 4.60686 19.8662C4.53603 19.8141 4.46513 19.762 4.39429 19.7186C4.34128 19.6752 4.26624 19.6147 4.19114 19.554L4.19061 19.5536L4.18998 19.5531L4.18966 19.5528C4.1147 19.4923 4.03984 19.4319 3.98693 19.3886C3.90223 19.3264 3.82386 19.2517 3.74804 19.1794L3.74779 19.1792C3.69685 19.1307 3.64706 19.0832 3.59728 19.0414C3.54415 18.9893 3.47775 18.9199 3.41135 18.8504C3.34493 18.781 3.27847 18.7115 3.22533 18.6594C3.20547 18.6334 3.16084 18.5832 3.10997 18.5259C3.02478 18.43 2.92208 18.3144 2.88881 18.26C2.57001 17.8606 2.28662 17.4092 2.05637 16.9577C1.73756 16.35 1.5073 15.69 1.36561 15.0301C1.71984 16.0893 2.26891 17.114 2.99508 17.9648L3.10135 18.1037L3.20762 18.2253L3.43787 18.4684L3.68583 18.6941C3.84524 18.8504 4.02235 18.9893 4.19947 19.1282C4.30574 19.215 4.50056 19.3539 4.60683 19.4234C4.67768 19.4668 4.74853 19.5145 4.81938 19.5623C4.89022 19.61 4.96107 19.6578 5.03191 19.7012L5.3153 19.8748C5.40385 19.9096 5.52783 19.979 5.61639 20.0311L5.91749 20.17C5.97062 20.1961 6.05918 20.2351 6.14774 20.2742C6.23629 20.3133 6.32485 20.3523 6.37799 20.3784C6.96247 20.5867 7.56466 20.7604 8.16685 20.8472C8.20911 20.8472 8.26347 20.8551 8.32031 20.8634C8.38257 20.8724 8.44782 20.8819 8.50337 20.8819L8.83989 20.9166C8.9373 20.9253 9.05686 20.9297 9.17641 20.934C9.29596 20.9384 9.41552 20.9427 9.51293 20.9514C9.61034 20.9427 9.72989 20.9384 9.84945 20.934C9.969 20.9297 10.0886 20.9253 10.186 20.9166C10.2125 20.9166 10.3011 20.908 10.3897 20.8993C10.4782 20.8906 10.5668 20.8819 10.5933 20.8819C10.6465 20.8646 10.7882 20.8472 10.8413 20.8472C11.3018 20.7777 11.7269 20.6562 12.1519 20.5346C12.2405 20.4999 12.3556 20.4609 12.4708 20.4218C12.5859 20.3827 12.701 20.3436 12.7896 20.3089L13.3918 20.0311C13.4803 19.9964 13.622 19.9269 13.6929 19.8748L13.9939 19.7012C14.1356 19.6144 14.2773 19.5275 14.419 19.4234C14.5253 19.3539 14.7201 19.215 14.8264 19.1282L15.1983 18.8156C15.2538 18.7613 15.3285 18.6928 15.3999 18.6273L15.4003 18.6269L15.4006 18.6266C15.4658 18.5669 15.5281 18.5097 15.5703 18.4684C15.6234 18.3989 15.8712 18.156 15.9244 18.1038C16.6276 17.2891 17.1722 16.3612 17.5321 15.3586C17.2705 15.7654 16.9807 16.1511 16.6654 16.5126Z" fill="url(#paint15_linear_1187_55)"/>
<defs>
<linearGradient id="paint0_linear_1187_55" x1="15.993" y1="-1.95649" x2="16.0477" y2="22.1739" gradientUnits="userSpaceOnUse">
<stop stop-color="white" stop-opacity="0.3"/>
<stop offset="0.493767" stop-color="white"/>
<stop offset="1" stop-color="white" stop-opacity="0.3"/>
</linearGradient>
<linearGradient id="paint1_linear_1187_55" x1="15.993" y1="-1.95649" x2="16.0477" y2="22.1739" gradientUnits="userSpaceOnUse">
<stop stop-color="white" stop-opacity="0.3"/>
<stop offset="0.493767" stop-color="white"/>
<stop offset="1" stop-color="white" stop-opacity="0.3"/>
</linearGradient>
<linearGradient id="paint2_linear_1187_55" x1="15.993" y1="-1.95649" x2="16.0477" y2="22.1739" gradientUnits="userSpaceOnUse">
<stop stop-color="white" stop-opacity="0.3"/>
<stop offset="0.493767" stop-color="white"/>
<stop offset="1" stop-color="white" stop-opacity="0.3"/>
</linearGradient>
<linearGradient id="paint3_linear_1187_55" x1="15.993" y1="-1.95649" x2="16.0477" y2="22.1739" gradientUnits="userSpaceOnUse">
<stop stop-color="white" stop-opacity="0.3"/>
<stop offset="0.493767" stop-color="white"/>
<stop offset="1" stop-color="white" stop-opacity="0.3"/>
</linearGradient>
<linearGradient id="paint4_linear_1187_55" x1="15.4909" y1="33.0979" x2="16.2357" y2="6.03041" gradientUnits="userSpaceOnUse">
<stop stop-color="white" stop-opacity="0.3"/>
<stop offset="0.493767" stop-color="white"/>
<stop offset="1" stop-color="white" stop-opacity="0.3"/>
</linearGradient>
<linearGradient id="paint5_linear_1187_55" x1="15.4909" y1="33.0979" x2="16.2357" y2="6.03041" gradientUnits="userSpaceOnUse">
<stop stop-color="white" stop-opacity="0.3"/>
<stop offset="0.493767" stop-color="white"/>
<stop offset="1" stop-color="white" stop-opacity="0.3"/>
</linearGradient>
<linearGradient id="paint6_linear_1187_55" x1="15.4909" y1="33.0979" x2="16.2357" y2="6.03041" gradientUnits="userSpaceOnUse">
<stop stop-color="white" stop-opacity="0.3"/>
<stop offset="0.493767" stop-color="white"/>
<stop offset="1" stop-color="white" stop-opacity="0.3"/>
</linearGradient>
<linearGradient id="paint7_linear_1187_55" x1="15.4909" y1="33.0979" x2="16.2357" y2="6.03041" gradientUnits="userSpaceOnUse">
<stop stop-color="white" stop-opacity="0.3"/>
<stop offset="0.493767" stop-color="white"/>
<stop offset="1" stop-color="white" stop-opacity="0.3"/>
</linearGradient>
<linearGradient id="paint8_linear_1187_55" x1="33.1326" y1="13.2066" x2="7.57703" y2="13.2658" gradientUnits="userSpaceOnUse">
<stop stop-color="white" stop-opacity="0.3"/>
<stop offset="0.493767" stop-color="white"/>
<stop offset="1" stop-color="white" stop-opacity="0.3"/>
</linearGradient>
<linearGradient id="paint9_linear_1187_55" x1="33.1326" y1="13.2066" x2="7.57703" y2="13.2658" gradientUnits="userSpaceOnUse">
<stop stop-color="white" stop-opacity="0.3"/>
<stop offset="0.493767" stop-color="white"/>
<stop offset="1" stop-color="white" stop-opacity="0.3"/>
</linearGradient>
<linearGradient id="paint10_linear_1187_55" x1="33.1326" y1="13.2066" x2="7.57703" y2="13.2658" gradientUnits="userSpaceOnUse">
<stop stop-color="white" stop-opacity="0.3"/>
<stop offset="0.493767" stop-color="white"/>
<stop offset="1" stop-color="white" stop-opacity="0.3"/>
</linearGradient>
<linearGradient id="paint11_linear_1187_55" x1="33.1326" y1="13.2066" x2="7.57703" y2="13.2658" gradientUnits="userSpaceOnUse">
<stop stop-color="white" stop-opacity="0.3"/>
<stop offset="0.493767" stop-color="white"/>
<stop offset="1" stop-color="white" stop-opacity="0.3"/>
</linearGradient>
<linearGradient id="paint12_linear_1187_55" x1="-4.7814" y1="16.7935" x2="22.5878" y2="16.7301" gradientUnits="userSpaceOnUse">
<stop stop-color="white" stop-opacity="0.3"/>
<stop offset="0.493767" stop-color="white"/>
<stop offset="1" stop-color="white" stop-opacity="0.3"/>
</linearGradient>
<linearGradient id="paint13_linear_1187_55" x1="-4.7814" y1="16.7935" x2="22.5878" y2="16.7301" gradientUnits="userSpaceOnUse">
<stop stop-color="white" stop-opacity="0.3"/>
<stop offset="0.493767" stop-color="white"/>
<stop offset="1" stop-color="white" stop-opacity="0.3"/>
</linearGradient>
<linearGradient id="paint14_linear_1187_55" x1="-4.7814" y1="16.7935" x2="22.5878" y2="16.7301" gradientUnits="userSpaceOnUse">
<stop stop-color="white" stop-opacity="0.3"/>
<stop offset="0.493767" stop-color="white"/>
<stop offset="1" stop-color="white" stop-opacity="0.3"/>
</linearGradient>
<linearGradient id="paint15_linear_1187_55" x1="-4.7814" y1="16.7935" x2="22.5878" y2="16.7301" gradientUnits="userSpaceOnUse">
<stop stop-color="white" stop-opacity="0.3"/>
<stop offset="0.493767" stop-color="white"/>
<stop offset="1" stop-color="white" stop-opacity="0.3"/>
</linearGradient>
</defs>
</svg>
